0
SECTION
2
HEADER
9
$ACADVER
1
AC1009
9
$INSUNITS
70
4
9
$LTSCALE
40
1.0
0
ENDSEC
0
SECTION
2
TABLES
0
TABLE
2
LTYPE
70
2
0
LTYPE
2
CONTINUOUS
70
0
3
Solid line
72
65
73
0
40
0.000000
0
LTYPE
2
DOTTED
70
0
3
Dotted . . . . . . . . . . . . . . . . . .
72
65
73
2
40
45.720000
49
15.240000
49
-30.480000
0
ENDTAB
0
TABLE
2
LAYER
70
8
0
LAYER
2
superluminal_spots
70
0
62
5
6
CONTINUOUS
0
LAYER
2
superluminal_led_strips
70
0
62
4
6
DOTTED
0
LAYER
2
superluminal_reverse_coves
70
0
62
2
6
CONTINUOUS
0
LAYER
2
superluminal_tracks
70
0
62
7
6
CONTINUOUS
0
LAYER
2
superluminal_track_fixtures
70
0
62
30
6
CONTINUOUS
0
LAYER
2
superluminal_decorative
70
0
62
6
6
CONTINUOUS
0
LAYER
2
superluminal_ceiling_objects
70
0
62
1
6
CONTINUOUS
0
LAYER
2
superluminal_rooms
70
0
62
3
6
CONTINUOUS
0
ENDTAB
0
ENDSEC
0
SECTION
2
ENTITIES
0
POLYLINE
8
superluminal_rooms
66
1
70
1
10
0.0
20
0.0
30
0.0
0
VERTEX
8
superluminal_rooms
10
152000.000000
20
98000.000000
30
0.0
0
VERTEX
8
superluminal_rooms
10
161000.000000
20
98000.000000
30
0.0
0
VERTEX
8
superluminal_rooms
10
161000.000000
20
104000.000000
30
0.0
0
VERTEX
8
superluminal_rooms
10
152000.000000
20
104000.000000
30
0.0
0
SEQEND
8
superluminal_rooms
0
CIRCLE
8
superluminal_decorative
10
156500.0000
20
101000.0000
30
0.0
40
457.2000
0
SOLID
8
superluminal_decorative
10
156500.000000
20
101000.000000
30
0.0
11
156537.124640
21
101000.000000
31
0.0
12
156534.298695
22
101014.206985
32
0.0
13
156534.298695
23
101014.206985
33
0.0
0
SOLID
8
superluminal_decorative
10
156500.000000
20
101000.000000
30
0.0
11
156534.298695
21
101014.206985
31
0.0
12
156526.251085
22
101026.251085
32
0.0
13
156526.251085
23
101026.251085
33
0.0
0
SOLID
8
superluminal_decorative
10
156500.000000
20
101000.000000
30
0.0
11
156526.251085
21
101026.251085
31
0.0
12
156514.206985
22
101034.298695
32
0.0
13
156514.206985
23
101034.298695
33
0.0
0
SOLID
8
superluminal_decorative
10
156500.000000
20
101000.000000
30
0.0
11
156514.206985
21
101034.298695
31
0.0
12
156500.000000
22
101037.124640
32
0.0
13
156500.000000
23
101037.124640
33
0.0
0
SOLID
8
superluminal_decorative
10
156500.000000
20
101000.000000
30
0.0
11
156500.000000
21
101037.124640
31
0.0
12
156485.793015
22
101034.298695
32
0.0
13
156485.793015
23
101034.298695
33
0.0
0
SOLID
8
superluminal_decorative
10
156500.000000
20
101000.000000
30
0.0
11
156485.793015
21
101034.298695
31
0.0
12
156473.748915
22
101026.251085
32
0.0
13
156473.748915
23
101026.251085
33
0.0
0
SOLID
8
superluminal_decorative
10
156500.000000
20
101000.000000
30
0.0
11
156473.748915
21
101026.251085
31
0.0
12
156465.701305
22
101014.206985
32
0.0
13
156465.701305
23
101014.206985
33
0.0
0
SOLID
8
superluminal_decorative
10
156500.000000
20
101000.000000
30
0.0
11
156465.701305
21
101014.206985
31
0.0
12
156462.875360
22
101000.000000
32
0.0
13
156462.875360
23
101000.000000
33
0.0
0
SOLID
8
superluminal_decorative
10
156500.000000
20
101000.000000
30
0.0
11
156462.875360
21
101000.000000
31
0.0
12
156465.701305
22
100985.793015
32
0.0
13
156465.701305
23
100985.793015
33
0.0
0
SOLID
8
superluminal_decorative
10
156500.000000
20
101000.000000
30
0.0
11
156465.701305
21
100985.793015
31
0.0
12
156473.748915
22
100973.748915
32
0.0
13
156473.748915
23
100973.748915
33
0.0
0
SOLID
8
superluminal_decorative
10
156500.000000
20
101000.000000
30
0.0
11
156473.748915
21
100973.748915
31
0.0
12
156485.793015
22
100965.701305
32
0.0
13
156485.793015
23
100965.701305
33
0.0
0
SOLID
8
superluminal_decorative
10
156500.000000
20
101000.000000
30
0.0
11
156485.793015
21
100965.701305
31
0.0
12
156500.000000
22
100962.875360
32
0.0
13
156500.000000
23
100962.875360
33
0.0
0
SOLID
8
superluminal_decorative
10
156500.000000
20
101000.000000
30
0.0
11
156500.000000
21
100962.875360
31
0.0
12
156514.206985
22
100965.701305
32
0.0
13
156514.206985
23
100965.701305
33
0.0
0
SOLID
8
superluminal_decorative
10
156500.000000
20
101000.000000
30
0.0
11
156514.206985
21
100965.701305
31
0.0
12
156526.251085
22
100973.748915
32
0.0
13
156526.251085
23
100973.748915
33
0.0
0
SOLID
8
superluminal_decorative
10
156500.000000
20
101000.000000
30
0.0
11
156526.251085
21
100973.748915
31
0.0
12
156534.298695
22
100985.793015
32
0.0
13
156534.298695
23
100985.793015
33
0.0
0
SOLID
8
superluminal_decorative
10
156500.000000
20
101000.000000
30
0.0
11
156534.298695
21
100985.793015
31
0.0
12
156537.124640
22
101000.000000
32
0.0
13
156537.124640
23
101000.000000
33
0.0
0
CIRCLE
8
superluminal_spots
10
153100.0000
20
99000.0000
30
0.0
40
88.3920
0
SOLID
8
superluminal_spots
10
153100.000000
20
99000.000000
30
0.0
11
153137.124640
21
99000.000000
31
0.0
12
153134.298695
22
99014.206985
32
0.0
13
153134.298695
23
99014.206985
33
0.0
0
SOLID
8
superluminal_spots
10
153100.000000
20
99000.000000
30
0.0
11
153134.298695
21
99014.206985
31
0.0
12
153126.251085
22
99026.251085
32
0.0
13
153126.251085
23
99026.251085
33
0.0
0
SOLID
8
superluminal_spots
10
153100.000000
20
99000.000000
30
0.0
11
153126.251085
21
99026.251085
31
0.0
12
153114.206985
22
99034.298695
32
0.0
13
153114.206985
23
99034.298695
33
0.0
0
SOLID
8
superluminal_spots
10
153100.000000
20
99000.000000
30
0.0
11
153114.206985
21
99034.298695
31
0.0
12
153100.000000
22
99037.124640
32
0.0
13
153100.000000
23
99037.124640
33
0.0
0
SOLID
8
superluminal_spots
10
153100.000000
20
99000.000000
30
0.0
11
153100.000000
21
99037.124640
31
0.0
12
153085.793015
22
99034.298695
32
0.0
13
153085.793015
23
99034.298695
33
0.0
0
SOLID
8
superluminal_spots
10
153100.000000
20
99000.000000
30
0.0
11
153085.793015
21
99034.298695
31
0.0
12
153073.748915
22
99026.251085
32
0.0
13
153073.748915
23
99026.251085
33
0.0
0
SOLID
8
superluminal_spots
10
153100.000000
20
99000.000000
30
0.0
11
153073.748915
21
99026.251085
31
0.0
12
153065.701305
22
99014.206985
32
0.0
13
153065.701305
23
99014.206985
33
0.0
0
SOLID
8
superluminal_spots
10
153100.000000
20
99000.000000
30
0.0
11
153065.701305
21
99014.206985
31
0.0
12
153062.875360
22
99000.000000
32
0.0
13
153062.875360
23
99000.000000
33
0.0
0
SOLID
8
superluminal_spots
10
153100.000000
20
99000.000000
30
0.0
11
153062.875360
21
99000.000000
31
0.0
12
153065.701305
22
98985.793015
32
0.0
13
153065.701305
23
98985.793015
33
0.0
0
SOLID
8
superluminal_spots
10
153100.000000
20
99000.000000
30
0.0
11
153065.701305
21
98985.793015
31
0.0
12
153073.748915
22
98973.748915
32
0.0
13
153073.748915
23
98973.748915
33
0.0
0
SOLID
8
superluminal_spots
10
153100.000000
20
99000.000000
30
0.0
11
153073.748915
21
98973.748915
31
0.0
12
153085.793015
22
98965.701305
32
0.0
13
153085.793015
23
98965.701305
33
0.0
0
SOLID
8
superluminal_spots
10
153100.000000
20
99000.000000
30
0.0
11
153085.793015
21
98965.701305
31
0.0
12
153100.000000
22
98962.875360
32
0.0
13
153100.000000
23
98962.875360
33
0.0
0
SOLID
8
superluminal_spots
10
153100.000000
20
99000.000000
30
0.0
11
153100.000000
21
98962.875360
31
0.0
12
153114.206985
22
98965.701305
32
0.0
13
153114.206985
23
98965.701305
33
0.0
0
SOLID
8
superluminal_spots
10
153100.000000
20
99000.000000
30
0.0
11
153114.206985
21
98965.701305
31
0.0
12
153126.251085
22
98973.748915
32
0.0
13
153126.251085
23
98973.748915
33
0.0
0
SOLID
8
superluminal_spots
10
153100.000000
20
99000.000000
30
0.0
11
153126.251085
21
98973.748915
31
0.0
12
153134.298695
22
98985.793015
32
0.0
13
153134.298695
23
98985.793015
33
0.0
0
SOLID
8
superluminal_spots
10
153100.000000
20
99000.000000
30
0.0
11
153134.298695
21
98985.793015
31
0.0
12
153137.124640
22
99000.000000
32
0.0
13
153137.124640
23
99000.000000
33
0.0
0
CIRCLE
8
superluminal_spots
10
155360.0000
20
99000.0000
30
0.0
40
88.3920
0
SOLID
8
superluminal_spots
10
155360.000000
20
99000.000000
30
0.0
11
155397.124640
21
99000.000000
31
0.0
12
155394.298695
22
99014.206985
32
0.0
13
155394.298695
23
99014.206985
33
0.0
0
SOLID
8
superluminal_spots
10
155360.000000
20
99000.000000
30
0.0
11
155394.298695
21
99014.206985
31
0.0
12
155386.251085
22
99026.251085
32
0.0
13
155386.251085
23
99026.251085
33
0.0
0
SOLID
8
superluminal_spots
10
155360.000000
20
99000.000000
30
0.0
11
155386.251085
21
99026.251085
31
0.0
12
155374.206985
22
99034.298695
32
0.0
13
155374.206985
23
99034.298695
33
0.0
0
SOLID
8
superluminal_spots
10
155360.000000
20
99000.000000
30
0.0
11
155374.206985
21
99034.298695
31
0.0
12
155360.000000
22
99037.124640
32
0.0
13
155360.000000
23
99037.124640
33
0.0
0
SOLID
8
superluminal_spots
10
155360.000000
20
99000.000000
30
0.0
11
155360.000000
21
99037.124640
31
0.0
12
155345.793015
22
99034.298695
32
0.0
13
155345.793015
23
99034.298695
33
0.0
0
SOLID
8
superluminal_spots
10
155360.000000
20
99000.000000
30
0.0
11
155345.793015
21
99034.298695
31
0.0
12
155333.748915
22
99026.251085
32
0.0
13
155333.748915
23
99026.251085
33
0.0
0
SOLID
8
superluminal_spots
10
155360.000000
20
99000.000000
30
0.0
11
155333.748915
21
99026.251085
31
0.0
12
155325.701305
22
99014.206985
32
0.0
13
155325.701305
23
99014.206985
33
0.0
0
SOLID
8
superluminal_spots
10
155360.000000
20
99000.000000
30
0.0
11
155325.701305
21
99014.206985
31
0.0
12
155322.875360
22
99000.000000
32
0.0
13
155322.875360
23
99000.000000
33
0.0
0
SOLID
8
superluminal_spots
10
155360.000000
20
99000.000000
30
0.0
11
155322.875360
21
99000.000000
31
0.0
12
155325.701305
22
98985.793015
32
0.0
13
155325.701305
23
98985.793015
33
0.0
0
SOLID
8
superluminal_spots
10
155360.000000
20
99000.000000
30
0.0
11
155325.701305
21
98985.793015
31
0.0
12
155333.748915
22
98973.748915
32
0.0
13
155333.748915
23
98973.748915
33
0.0
0
SOLID
8
superluminal_spots
10
155360.000000
20
99000.000000
30
0.0
11
155333.748915
21
98973.748915
31
0.0
12
155345.793015
22
98965.701305
32
0.0
13
155345.793015
23
98965.701305
33
0.0
0
SOLID
8
superluminal_spots
10
155360.000000
20
99000.000000
30
0.0
11
155345.793015
21
98965.701305
31
0.0
12
155360.000000
22
98962.875360
32
0.0
13
155360.000000
23
98962.875360
33
0.0
0
SOLID
8
superluminal_spots
10
155360.000000
20
99000.000000
30
0.0
11
155360.000000
21
98962.875360
31
0.0
12
155374.206985
22
98965.701305
32
0.0
13
155374.206985
23
98965.701305
33
0.0
0
SOLID
8
superluminal_spots
10
155360.000000
20
99000.000000
30
0.0
11
155374.206985
21
98965.701305
31
0.0
12
155386.251085
22
98973.748915
32
0.0
13
155386.251085
23
98973.748915
33
0.0
0
SOLID
8
superluminal_spots
10
155360.000000
20
99000.000000
30
0.0
11
155386.251085
21
98973.748915
31
0.0
12
155394.298695
22
98985.793015
32
0.0
13
155394.298695
23
98985.793015
33
0.0
0
SOLID
8
superluminal_spots
10
155360.000000
20
99000.000000
30
0.0
11
155394.298695
21
98985.793015
31
0.0
12
155397.124640
22
99000.000000
32
0.0
13
155397.124640
23
99000.000000
33
0.0
0
CIRCLE
8
superluminal_spots
10
157620.0000
20
99000.0000
30
0.0
40
88.3920
0
SOLID
8
superluminal_spots
10
157620.000000
20
99000.000000
30
0.0
11
157657.124640
21
99000.000000
31
0.0
12
157654.298695
22
99014.206985
32
0.0
13
157654.298695
23
99014.206985
33
0.0
0
SOLID
8
superluminal_spots
10
157620.000000
20
99000.000000
30
0.0
11
157654.298695
21
99014.206985
31
0.0
12
157646.251085
22
99026.251085
32
0.0
13
157646.251085
23
99026.251085
33
0.0
0
SOLID
8
superluminal_spots
10
157620.000000
20
99000.000000
30
0.0
11
157646.251085
21
99026.251085
31
0.0
12
157634.206985
22
99034.298695
32
0.0
13
157634.206985
23
99034.298695
33
0.0
0
SOLID
8
superluminal_spots
10
157620.000000
20
99000.000000
30
0.0
11
157634.206985
21
99034.298695
31
0.0
12
157620.000000
22
99037.124640
32
0.0
13
157620.000000
23
99037.124640
33
0.0
0
SOLID
8
superluminal_spots
10
157620.000000
20
99000.000000
30
0.0
11
157620.000000
21
99037.124640
31
0.0
12
157605.793015
22
99034.298695
32
0.0
13
157605.793015
23
99034.298695
33
0.0
0
SOLID
8
superluminal_spots
10
157620.000000
20
99000.000000
30
0.0
11
157605.793015
21
99034.298695
31
0.0
12
157593.748915
22
99026.251085
32
0.0
13
157593.748915
23
99026.251085
33
0.0
0
SOLID
8
superluminal_spots
10
157620.000000
20
99000.000000
30
0.0
11
157593.748915
21
99026.251085
31
0.0
12
157585.701305
22
99014.206985
32
0.0
13
157585.701305
23
99014.206985
33
0.0
0
SOLID
8
superluminal_spots
10
157620.000000
20
99000.000000
30
0.0
11
157585.701305
21
99014.206985
31
0.0
12
157582.875360
22
99000.000000
32
0.0
13
157582.875360
23
99000.000000
33
0.0
0
SOLID
8
superluminal_spots
10
157620.000000
20
99000.000000
30
0.0
11
157582.875360
21
99000.000000
31
0.0
12
157585.701305
22
98985.793015
32
0.0
13
157585.701305
23
98985.793015
33
0.0
0
SOLID
8
superluminal_spots
10
157620.000000
20
99000.000000
30
0.0
11
157585.701305
21
98985.793015
31
0.0
12
157593.748915
22
98973.748915
32
0.0
13
157593.748915
23
98973.748915
33
0.0
0
SOLID
8
superluminal_spots
10
157620.000000
20
99000.000000
30
0.0
11
157593.748915
21
98973.748915
31
0.0
12
157605.793015
22
98965.701305
32
0.0
13
157605.793015
23
98965.701305
33
0.0
0
SOLID
8
superluminal_spots
10
157620.000000
20
99000.000000
30
0.0
11
157605.793015
21
98965.701305
31
0.0
12
157620.000000
22
98962.875360
32
0.0
13
157620.000000
23
98962.875360
33
0.0
0
SOLID
8
superluminal_spots
10
157620.000000
20
99000.000000
30
0.0
11
157620.000000
21
98962.875360
31
0.0
12
157634.206985
22
98965.701305
32
0.0
13
157634.206985
23
98965.701305
33
0.0
0
SOLID
8
superluminal_spots
10
157620.000000
20
99000.000000
30
0.0
11
157634.206985
21
98965.701305
31
0.0
12
157646.251085
22
98973.748915
32
0.0
13
157646.251085
23
98973.748915
33
0.0
0
SOLID
8
superluminal_spots
10
157620.000000
20
99000.000000
30
0.0
11
157646.251085
21
98973.748915
31
0.0
12
157654.298695
22
98985.793015
32
0.0
13
157654.298695
23
98985.793015
33
0.0
0
SOLID
8
superluminal_spots
10
157620.000000
20
99000.000000
30
0.0
11
157654.298695
21
98985.793015
31
0.0
12
157657.124640
22
99000.000000
32
0.0
13
157657.124640
23
99000.000000
33
0.0
0
CIRCLE
8
superluminal_spots
10
159880.0000
20
99000.0000
30
0.0
40
88.3920
0
SOLID
8
superluminal_spots
10
159880.000000
20
99000.000000
30
0.0
11
159917.124640
21
99000.000000
31
0.0
12
159914.298695
22
99014.206985
32
0.0
13
159914.298695
23
99014.206985
33
0.0
0
SOLID
8
superluminal_spots
10
159880.000000
20
99000.000000
30
0.0
11
159914.298695
21
99014.206985
31
0.0
12
159906.251085
22
99026.251085
32
0.0
13
159906.251085
23
99026.251085
33
0.0
0
SOLID
8
superluminal_spots
10
159880.000000
20
99000.000000
30
0.0
11
159906.251085
21
99026.251085
31
0.0
12
159894.206985
22
99034.298695
32
0.0
13
159894.206985
23
99034.298695
33
0.0
0
SOLID
8
superluminal_spots
10
159880.000000
20
99000.000000
30
0.0
11
159894.206985
21
99034.298695
31
0.0
12
159880.000000
22
99037.124640
32
0.0
13
159880.000000
23
99037.124640
33
0.0
0
SOLID
8
superluminal_spots
10
159880.000000
20
99000.000000
30
0.0
11
159880.000000
21
99037.124640
31
0.0
12
159865.793015
22
99034.298695
32
0.0
13
159865.793015
23
99034.298695
33
0.0
0
SOLID
8
superluminal_spots
10
159880.000000
20
99000.000000
30
0.0
11
159865.793015
21
99034.298695
31
0.0
12
159853.748915
22
99026.251085
32
0.0
13
159853.748915
23
99026.251085
33
0.0
0
SOLID
8
superluminal_spots
10
159880.000000
20
99000.000000
30
0.0
11
159853.748915
21
99026.251085
31
0.0
12
159845.701305
22
99014.206985
32
0.0
13
159845.701305
23
99014.206985
33
0.0
0
SOLID
8
superluminal_spots
10
159880.000000
20
99000.000000
30
0.0
11
159845.701305
21
99014.206985
31
0.0
12
159842.875360
22
99000.000000
32
0.0
13
159842.875360
23
99000.000000
33
0.0
0
SOLID
8
superluminal_spots
10
159880.000000
20
99000.000000
30
0.0
11
159842.875360
21
99000.000000
31
0.0
12
159845.701305
22
98985.793015
32
0.0
13
159845.701305
23
98985.793015
33
0.0
0
SOLID
8
superluminal_spots
10
159880.000000
20
99000.000000
30
0.0
11
159845.701305
21
98985.793015
31
0.0
12
159853.748915
22
98973.748915
32
0.0
13
159853.748915
23
98973.748915
33
0.0
0
SOLID
8
superluminal_spots
10
159880.000000
20
99000.000000
30
0.0
11
159853.748915
21
98973.748915
31
0.0
12
159865.793015
22
98965.701305
32
0.0
13
159865.793015
23
98965.701305
33
0.0
0
SOLID
8
superluminal_spots
10
159880.000000
20
99000.000000
30
0.0
11
159865.793015
21
98965.701305
31
0.0
12
159880.000000
22
98962.875360
32
0.0
13
159880.000000
23
98962.875360
33
0.0
0
SOLID
8
superluminal_spots
10
159880.000000
20
99000.000000
30
0.0
11
159880.000000
21
98962.875360
31
0.0
12
159894.206985
22
98965.701305
32
0.0
13
159894.206985
23
98965.701305
33
0.0
0
SOLID
8
superluminal_spots
10
159880.000000
20
99000.000000
30
0.0
11
159894.206985
21
98965.701305
31
0.0
12
159906.251085
22
98973.748915
32
0.0
13
159906.251085
23
98973.748915
33
0.0
0
SOLID
8
superluminal_spots
10
159880.000000
20
99000.000000
30
0.0
11
159906.251085
21
98973.748915
31
0.0
12
159914.298695
22
98985.793015
32
0.0
13
159914.298695
23
98985.793015
33
0.0
0
SOLID
8
superluminal_spots
10
159880.000000
20
99000.000000
30
0.0
11
159914.298695
21
98985.793015
31
0.0
12
159917.124640
22
99000.000000
32
0.0
13
159917.124640
23
99000.000000
33
0.0
0
CIRCLE
8
superluminal_spots
10
153100.0000
20
101000.0000
30
0.0
40
88.3920
0
SOLID
8
superluminal_spots
10
153100.000000
20
101000.000000
30
0.0
11
153137.124640
21
101000.000000
31
0.0
12
153134.298695
22
101014.206985
32
0.0
13
153134.298695
23
101014.206985
33
0.0
0
SOLID
8
superluminal_spots
10
153100.000000
20
101000.000000
30
0.0
11
153134.298695
21
101014.206985
31
0.0
12
153126.251085
22
101026.251085
32
0.0
13
153126.251085
23
101026.251085
33
0.0
0
SOLID
8
superluminal_spots
10
153100.000000
20
101000.000000
30
0.0
11
153126.251085
21
101026.251085
31
0.0
12
153114.206985
22
101034.298695
32
0.0
13
153114.206985
23
101034.298695
33
0.0
0
SOLID
8
superluminal_spots
10
153100.000000
20
101000.000000
30
0.0
11
153114.206985
21
101034.298695
31
0.0
12
153100.000000
22
101037.124640
32
0.0
13
153100.000000
23
101037.124640
33
0.0
0
SOLID
8
superluminal_spots
10
153100.000000
20
101000.000000
30
0.0
11
153100.000000
21
101037.124640
31
0.0
12
153085.793015
22
101034.298695
32
0.0
13
153085.793015
23
101034.298695
33
0.0
0
SOLID
8
superluminal_spots
10
153100.000000
20
101000.000000
30
0.0
11
153085.793015
21
101034.298695
31
0.0
12
153073.748915
22
101026.251085
32
0.0
13
153073.748915
23
101026.251085
33
0.0
0
SOLID
8
superluminal_spots
10
153100.000000
20
101000.000000
30
0.0
11
153073.748915
21
101026.251085
31
0.0
12
153065.701305
22
101014.206985
32
0.0
13
153065.701305
23
101014.206985
33
0.0
0
SOLID
8
superluminal_spots
10
153100.000000
20
101000.000000
30
0.0
11
153065.701305
21
101014.206985
31
0.0
12
153062.875360
22
101000.000000
32
0.0
13
153062.875360
23
101000.000000
33
0.0
0
SOLID
8
superluminal_spots
10
153100.000000
20
101000.000000
30
0.0
11
153062.875360
21
101000.000000
31
0.0
12
153065.701305
22
100985.793015
32
0.0
13
153065.701305
23
100985.793015
33
0.0
0
SOLID
8
superluminal_spots
10
153100.000000
20
101000.000000
30
0.0
11
153065.701305
21
100985.793015
31
0.0
12
153073.748915
22
100973.748915
32
0.0
13
153073.748915
23
100973.748915
33
0.0
0
SOLID
8
superluminal_spots
10
153100.000000
20
101000.000000
30
0.0
11
153073.748915
21
100973.748915
31
0.0
12
153085.793015
22
100965.701305
32
0.0
13
153085.793015
23
100965.701305
33
0.0
0
SOLID
8
superluminal_spots
10
153100.000000
20
101000.000000
30
0.0
11
153085.793015
21
100965.701305
31
0.0
12
153100.000000
22
100962.875360
32
0.0
13
153100.000000
23
100962.875360
33
0.0
0
SOLID
8
superluminal_spots
10
153100.000000
20
101000.000000
30
0.0
11
153100.000000
21
100962.875360
31
0.0
12
153114.206985
22
100965.701305
32
0.0
13
153114.206985
23
100965.701305
33
0.0
0
SOLID
8
superluminal_spots
10
153100.000000
20
101000.000000
30
0.0
11
153114.206985
21
100965.701305
31
0.0
12
153126.251085
22
100973.748915
32
0.0
13
153126.251085
23
100973.748915
33
0.0
0
SOLID
8
superluminal_spots
10
153100.000000
20
101000.000000
30
0.0
11
153126.251085
21
100973.748915
31
0.0
12
153134.298695
22
100985.793015
32
0.0
13
153134.298695
23
100985.793015
33
0.0
0
SOLID
8
superluminal_spots
10
153100.000000
20
101000.000000
30
0.0
11
153134.298695
21
100985.793015
31
0.0
12
153137.124640
22
101000.000000
32
0.0
13
153137.124640
23
101000.000000
33
0.0
0
CIRCLE
8
superluminal_spots
10
155360.0000
20
101000.0000
30
0.0
40
88.3920
0
SOLID
8
superluminal_spots
10
155360.000000
20
101000.000000
30
0.0
11
155397.124640
21
101000.000000
31
0.0
12
155394.298695
22
101014.206985
32
0.0
13
155394.298695
23
101014.206985
33
0.0
0
SOLID
8
superluminal_spots
10
155360.000000
20
101000.000000
30
0.0
11
155394.298695
21
101014.206985
31
0.0
12
155386.251085
22
101026.251085
32
0.0
13
155386.251085
23
101026.251085
33
0.0
0
SOLID
8
superluminal_spots
10
155360.000000
20
101000.000000
30
0.0
11
155386.251085
21
101026.251085
31
0.0
12
155374.206985
22
101034.298695
32
0.0
13
155374.206985
23
101034.298695
33
0.0
0
SOLID
8
superluminal_spots
10
155360.000000
20
101000.000000
30
0.0
11
155374.206985
21
101034.298695
31
0.0
12
155360.000000
22
101037.124640
32
0.0
13
155360.000000
23
101037.124640
33
0.0
0
SOLID
8
superluminal_spots
10
155360.000000
20
101000.000000
30
0.0
11
155360.000000
21
101037.124640
31
0.0
12
155345.793015
22
101034.298695
32
0.0
13
155345.793015
23
101034.298695
33
0.0
0
SOLID
8
superluminal_spots
10
155360.000000
20
101000.000000
30
0.0
11
155345.793015
21
101034.298695
31
0.0
12
155333.748915
22
101026.251085
32
0.0
13
155333.748915
23
101026.251085
33
0.0
0
SOLID
8
superluminal_spots
10
155360.000000
20
101000.000000
30
0.0
11
155333.748915
21
101026.251085
31
0.0
12
155325.701305
22
101014.206985
32
0.0
13
155325.701305
23
101014.206985
33
0.0
0
SOLID
8
superluminal_spots
10
155360.000000
20
101000.000000
30
0.0
11
155325.701305
21
101014.206985
31
0.0
12
155322.875360
22
101000.000000
32
0.0
13
155322.875360
23
101000.000000
33
0.0
0
SOLID
8
superluminal_spots
10
155360.000000
20
101000.000000
30
0.0
11
155322.875360
21
101000.000000
31
0.0
12
155325.701305
22
100985.793015
32
0.0
13
155325.701305
23
100985.793015
33
0.0
0
SOLID
8
superluminal_spots
10
155360.000000
20
101000.000000
30
0.0
11
155325.701305
21
100985.793015
31
0.0
12
155333.748915
22
100973.748915
32
0.0
13
155333.748915
23
100973.748915
33
0.0
0
SOLID
8
superluminal_spots
10
155360.000000
20
101000.000000
30
0.0
11
155333.748915
21
100973.748915
31
0.0
12
155345.793015
22
100965.701305
32
0.0
13
155345.793015
23
100965.701305
33
0.0
0
SOLID
8
superluminal_spots
10
155360.000000
20
101000.000000
30
0.0
11
155345.793015
21
100965.701305
31
0.0
12
155360.000000
22
100962.875360
32
0.0
13
155360.000000
23
100962.875360
33
0.0
0
SOLID
8
superluminal_spots
10
155360.000000
20
101000.000000
30
0.0
11
155360.000000
21
100962.875360
31
0.0
12
155374.206985
22
100965.701305
32
0.0
13
155374.206985
23
100965.701305
33
0.0
0
SOLID
8
superluminal_spots
10
155360.000000
20
101000.000000
30
0.0
11
155374.206985
21
100965.701305
31
0.0
12
155386.251085
22
100973.748915
32
0.0
13
155386.251085
23
100973.748915
33
0.0
0
SOLID
8
superluminal_spots
10
155360.000000
20
101000.000000
30
0.0
11
155386.251085
21
100973.748915
31
0.0
12
155394.298695
22
100985.793015
32
0.0
13
155394.298695
23
100985.793015
33
0.0
0
SOLID
8
superluminal_spots
10
155360.000000
20
101000.000000
30
0.0
11
155394.298695
21
100985.793015
31
0.0
12
155397.124640
22
101000.000000
32
0.0
13
155397.124640
23
101000.000000
33
0.0
0
CIRCLE
8
superluminal_spots
10
157620.0000
20
101000.0000
30
0.0
40
88.3920
0
SOLID
8
superluminal_spots
10
157620.000000
20
101000.000000
30
0.0
11
157657.124640
21
101000.000000
31
0.0
12
157654.298695
22
101014.206985
32
0.0
13
157654.298695
23
101014.206985
33
0.0
0
SOLID
8
superluminal_spots
10
157620.000000
20
101000.000000
30
0.0
11
157654.298695
21
101014.206985
31
0.0
12
157646.251085
22
101026.251085
32
0.0
13
157646.251085
23
101026.251085
33
0.0
0
SOLID
8
superluminal_spots
10
157620.000000
20
101000.000000
30
0.0
11
157646.251085
21
101026.251085
31
0.0
12
157634.206985
22
101034.298695
32
0.0
13
157634.206985
23
101034.298695
33
0.0
0
SOLID
8
superluminal_spots
10
157620.000000
20
101000.000000
30
0.0
11
157634.206985
21
101034.298695
31
0.0
12
157620.000000
22
101037.124640
32
0.0
13
157620.000000
23
101037.124640
33
0.0
0
SOLID
8
superluminal_spots
10
157620.000000
20
101000.000000
30
0.0
11
157620.000000
21
101037.124640
31
0.0
12
157605.793015
22
101034.298695
32
0.0
13
157605.793015
23
101034.298695
33
0.0
0
SOLID
8
superluminal_spots
10
157620.000000
20
101000.000000
30
0.0
11
157605.793015
21
101034.298695
31
0.0
12
157593.748915
22
101026.251085
32
0.0
13
157593.748915
23
101026.251085
33
0.0
0
SOLID
8
superluminal_spots
10
157620.000000
20
101000.000000
30
0.0
11
157593.748915
21
101026.251085
31
0.0
12
157585.701305
22
101014.206985
32
0.0
13
157585.701305
23
101014.206985
33
0.0
0
SOLID
8
superluminal_spots
10
157620.000000
20
101000.000000
30
0.0
11
157585.701305
21
101014.206985
31
0.0
12
157582.875360
22
101000.000000
32
0.0
13
157582.875360
23
101000.000000
33
0.0
0
SOLID
8
superluminal_spots
10
157620.000000
20
101000.000000
30
0.0
11
157582.875360
21
101000.000000
31
0.0
12
157585.701305
22
100985.793015
32
0.0
13
157585.701305
23
100985.793015
33
0.0
0
SOLID
8
superluminal_spots
10
157620.000000
20
101000.000000
30
0.0
11
157585.701305
21
100985.793015
31
0.0
12
157593.748915
22
100973.748915
32
0.0
13
157593.748915
23
100973.748915
33
0.0
0
SOLID
8
superluminal_spots
10
157620.000000
20
101000.000000
30
0.0
11
157593.748915
21
100973.748915
31
0.0
12
157605.793015
22
100965.701305
32
0.0
13
157605.793015
23
100965.701305
33
0.0
0
SOLID
8
superluminal_spots
10
157620.000000
20
101000.000000
30
0.0
11
157605.793015
21
100965.701305
31
0.0
12
157620.000000
22
100962.875360
32
0.0
13
157620.000000
23
100962.875360
33
0.0
0
SOLID
8
superluminal_spots
10
157620.000000
20
101000.000000
30
0.0
11
157620.000000
21
100962.875360
31
0.0
12
157634.206985
22
100965.701305
32
0.0
13
157634.206985
23
100965.701305
33
0.0
0
SOLID
8
superluminal_spots
10
157620.000000
20
101000.000000
30
0.0
11
157634.206985
21
100965.701305
31
0.0
12
157646.251085
22
100973.748915
32
0.0
13
157646.251085
23
100973.748915
33
0.0
0
SOLID
8
superluminal_spots
10
157620.000000
20
101000.000000
30
0.0
11
157646.251085
21
100973.748915
31
0.0
12
157654.298695
22
100985.793015
32
0.0
13
157654.298695
23
100985.793015
33
0.0
0
SOLID
8
superluminal_spots
10
157620.000000
20
101000.000000
30
0.0
11
157654.298695
21
100985.793015
31
0.0
12
157657.124640
22
101000.000000
32
0.0
13
157657.124640
23
101000.000000
33
0.0
0
CIRCLE
8
superluminal_spots
10
159880.0000
20
101000.0000
30
0.0
40
88.3920
0
SOLID
8
superluminal_spots
10
159880.000000
20
101000.000000
30
0.0
11
159917.124640
21
101000.000000
31
0.0
12
159914.298695
22
101014.206985
32
0.0
13
159914.298695
23
101014.206985
33
0.0
0
SOLID
8
superluminal_spots
10
159880.000000
20
101000.000000
30
0.0
11
159914.298695
21
101014.206985
31
0.0
12
159906.251085
22
101026.251085
32
0.0
13
159906.251085
23
101026.251085
33
0.0
0
SOLID
8
superluminal_spots
10
159880.000000
20
101000.000000
30
0.0
11
159906.251085
21
101026.251085
31
0.0
12
159894.206985
22
101034.298695
32
0.0
13
159894.206985
23
101034.298695
33
0.0
0
SOLID
8
superluminal_spots
10
159880.000000
20
101000.000000
30
0.0
11
159894.206985
21
101034.298695
31
0.0
12
159880.000000
22
101037.124640
32
0.0
13
159880.000000
23
101037.124640
33
0.0
0
SOLID
8
superluminal_spots
10
159880.000000
20
101000.000000
30
0.0
11
159880.000000
21
101037.124640
31
0.0
12
159865.793015
22
101034.298695
32
0.0
13
159865.793015
23
101034.298695
33
0.0
0
SOLID
8
superluminal_spots
10
159880.000000
20
101000.000000
30
0.0
11
159865.793015
21
101034.298695
31
0.0
12
159853.748915
22
101026.251085
32
0.0
13
159853.748915
23
101026.251085
33
0.0
0
SOLID
8
superluminal_spots
10
159880.000000
20
101000.000000
30
0.0
11
159853.748915
21
101026.251085
31
0.0
12
159845.701305
22
101014.206985
32
0.0
13
159845.701305
23
101014.206985
33
0.0
0
SOLID
8
superluminal_spots
10
159880.000000
20
101000.000000
30
0.0
11
159845.701305
21
101014.206985
31
0.0
12
159842.875360
22
101000.000000
32
0.0
13
159842.875360
23
101000.000000
33
0.0
0
SOLID
8
superluminal_spots
10
159880.000000
20
101000.000000
30
0.0
11
159842.875360
21
101000.000000
31
0.0
12
159845.701305
22
100985.793015
32
0.0
13
159845.701305
23
100985.793015
33
0.0
0
SOLID
8
superluminal_spots
10
159880.000000
20
101000.000000
30
0.0
11
159845.701305
21
100985.793015
31
0.0
12
159853.748915
22
100973.748915
32
0.0
13
159853.748915
23
100973.748915
33
0.0
0
SOLID
8
superluminal_spots
10
159880.000000
20
101000.000000
30
0.0
11
159853.748915
21
100973.748915
31
0.0
12
159865.793015
22
100965.701305
32
0.0
13
159865.793015
23
100965.701305
33
0.0
0
SOLID
8
superluminal_spots
10
159880.000000
20
101000.000000
30
0.0
11
159865.793015
21
100965.701305
31
0.0
12
159880.000000
22
100962.875360
32
0.0
13
159880.000000
23
100962.875360
33
0.0
0
SOLID
8
superluminal_spots
10
159880.000000
20
101000.000000
30
0.0
11
159880.000000
21
100962.875360
31
0.0
12
159894.206985
22
100965.701305
32
0.0
13
159894.206985
23
100965.701305
33
0.0
0
SOLID
8
superluminal_spots
10
159880.000000
20
101000.000000
30
0.0
11
159894.206985
21
100965.701305
31
0.0
12
159906.251085
22
100973.748915
32
0.0
13
159906.251085
23
100973.748915
33
0.0
0
SOLID
8
superluminal_spots
10
159880.000000
20
101000.000000
30
0.0
11
159906.251085
21
100973.748915
31
0.0
12
159914.298695
22
100985.793015
32
0.0
13
159914.298695
23
100985.793015
33
0.0
0
SOLID
8
superluminal_spots
10
159880.000000
20
101000.000000
30
0.0
11
159914.298695
21
100985.793015
31
0.0
12
159917.124640
22
101000.000000
32
0.0
13
159917.124640
23
101000.000000
33
0.0
0
CIRCLE
8
superluminal_spots
10
153100.0000
20
103000.0000
30
0.0
40
88.3920
0
SOLID
8
superluminal_spots
10
153100.000000
20
103000.000000
30
0.0
11
153137.124640
21
103000.000000
31
0.0
12
153134.298695
22
103014.206985
32
0.0
13
153134.298695
23
103014.206985
33
0.0
0
SOLID
8
superluminal_spots
10
153100.000000
20
103000.000000
30
0.0
11
153134.298695
21
103014.206985
31
0.0
12
153126.251085
22
103026.251085
32
0.0
13
153126.251085
23
103026.251085
33
0.0
0
SOLID
8
superluminal_spots
10
153100.000000
20
103000.000000
30
0.0
11
153126.251085
21
103026.251085
31
0.0
12
153114.206985
22
103034.298695
32
0.0
13
153114.206985
23
103034.298695
33
0.0
0
SOLID
8
superluminal_spots
10
153100.000000
20
103000.000000
30
0.0
11
153114.206985
21
103034.298695
31
0.0
12
153100.000000
22
103037.124640
32
0.0
13
153100.000000
23
103037.124640
33
0.0
0
SOLID
8
superluminal_spots
10
153100.000000
20
103000.000000
30
0.0
11
153100.000000
21
103037.124640
31
0.0
12
153085.793015
22
103034.298695
32
0.0
13
153085.793015
23
103034.298695
33
0.0
0
SOLID
8
superluminal_spots
10
153100.000000
20
103000.000000
30
0.0
11
153085.793015
21
103034.298695
31
0.0
12
153073.748915
22
103026.251085
32
0.0
13
153073.748915
23
103026.251085
33
0.0
0
SOLID
8
superluminal_spots
10
153100.000000
20
103000.000000
30
0.0
11
153073.748915
21
103026.251085
31
0.0
12
153065.701305
22
103014.206985
32
0.0
13
153065.701305
23
103014.206985
33
0.0
0
SOLID
8
superluminal_spots
10
153100.000000
20
103000.000000
30
0.0
11
153065.701305
21
103014.206985
31
0.0
12
153062.875360
22
103000.000000
32
0.0
13
153062.875360
23
103000.000000
33
0.0
0
SOLID
8
superluminal_spots
10
153100.000000
20
103000.000000
30
0.0
11
153062.875360
21
103000.000000
31
0.0
12
153065.701305
22
102985.793015
32
0.0
13
153065.701305
23
102985.793015
33
0.0
0
SOLID
8
superluminal_spots
10
153100.000000
20
103000.000000
30
0.0
11
153065.701305
21
102985.793015
31
0.0
12
153073.748915
22
102973.748915
32
0.0
13
153073.748915
23
102973.748915
33
0.0
0
SOLID
8
superluminal_spots
10
153100.000000
20
103000.000000
30
0.0
11
153073.748915
21
102973.748915
31
0.0
12
153085.793015
22
102965.701305
32
0.0
13
153085.793015
23
102965.701305
33
0.0
0
SOLID
8
superluminal_spots
10
153100.000000
20
103000.000000
30
0.0
11
153085.793015
21
102965.701305
31
0.0
12
153100.000000
22
102962.875360
32
0.0
13
153100.000000
23
102962.875360
33
0.0
0
SOLID
8
superluminal_spots
10
153100.000000
20
103000.000000
30
0.0
11
153100.000000
21
102962.875360
31
0.0
12
153114.206985
22
102965.701305
32
0.0
13
153114.206985
23
102965.701305
33
0.0
0
SOLID
8
superluminal_spots
10
153100.000000
20
103000.000000
30
0.0
11
153114.206985
21
102965.701305
31
0.0
12
153126.251085
22
102973.748915
32
0.0
13
153126.251085
23
102973.748915
33
0.0
0
SOLID
8
superluminal_spots
10
153100.000000
20
103000.000000
30
0.0
11
153126.251085
21
102973.748915
31
0.0
12
153134.298695
22
102985.793015
32
0.0
13
153134.298695
23
102985.793015
33
0.0
0
SOLID
8
superluminal_spots
10
153100.000000
20
103000.000000
30
0.0
11
153134.298695
21
102985.793015
31
0.0
12
153137.124640
22
103000.000000
32
0.0
13
153137.124640
23
103000.000000
33
0.0
0
CIRCLE
8
superluminal_spots
10
155360.0000
20
103000.0000
30
0.0
40
88.3920
0
SOLID
8
superluminal_spots
10
155360.000000
20
103000.000000
30
0.0
11
155397.124640
21
103000.000000
31
0.0
12
155394.298695
22
103014.206985
32
0.0
13
155394.298695
23
103014.206985
33
0.0
0
SOLID
8
superluminal_spots
10
155360.000000
20
103000.000000
30
0.0
11
155394.298695
21
103014.206985
31
0.0
12
155386.251085
22
103026.251085
32
0.0
13
155386.251085
23
103026.251085
33
0.0
0
SOLID
8
superluminal_spots
10
155360.000000
20
103000.000000
30
0.0
11
155386.251085
21
103026.251085
31
0.0
12
155374.206985
22
103034.298695
32
0.0
13
155374.206985
23
103034.298695
33
0.0
0
SOLID
8
superluminal_spots
10
155360.000000
20
103000.000000
30
0.0
11
155374.206985
21
103034.298695
31
0.0
12
155360.000000
22
103037.124640
32
0.0
13
155360.000000
23
103037.124640
33
0.0
0
SOLID
8
superluminal_spots
10
155360.000000
20
103000.000000
30
0.0
11
155360.000000
21
103037.124640
31
0.0
12
155345.793015
22
103034.298695
32
0.0
13
155345.793015
23
103034.298695
33
0.0
0
SOLID
8
superluminal_spots
10
155360.000000
20
103000.000000
30
0.0
11
155345.793015
21
103034.298695
31
0.0
12
155333.748915
22
103026.251085
32
0.0
13
155333.748915
23
103026.251085
33
0.0
0
SOLID
8
superluminal_spots
10
155360.000000
20
103000.000000
30
0.0
11
155333.748915
21
103026.251085
31
0.0
12
155325.701305
22
103014.206985
32
0.0
13
155325.701305
23
103014.206985
33
0.0
0
SOLID
8
superluminal_spots
10
155360.000000
20
103000.000000
30
0.0
11
155325.701305
21
103014.206985
31
0.0
12
155322.875360
22
103000.000000
32
0.0
13
155322.875360
23
103000.000000
33
0.0
0
SOLID
8
superluminal_spots
10
155360.000000
20
103000.000000
30
0.0
11
155322.875360
21
103000.000000
31
0.0
12
155325.701305
22
102985.793015
32
0.0
13
155325.701305
23
102985.793015
33
0.0
0
SOLID
8
superluminal_spots
10
155360.000000
20
103000.000000
30
0.0
11
155325.701305
21
102985.793015
31
0.0
12
155333.748915
22
102973.748915
32
0.0
13
155333.748915
23
102973.748915
33
0.0
0
SOLID
8
superluminal_spots
10
155360.000000
20
103000.000000
30
0.0
11
155333.748915
21
102973.748915
31
0.0
12
155345.793015
22
102965.701305
32
0.0
13
155345.793015
23
102965.701305
33
0.0
0
SOLID
8
superluminal_spots
10
155360.000000
20
103000.000000
30
0.0
11
155345.793015
21
102965.701305
31
0.0
12
155360.000000
22
102962.875360
32
0.0
13
155360.000000
23
102962.875360
33
0.0
0
SOLID
8
superluminal_spots
10
155360.000000
20
103000.000000
30
0.0
11
155360.000000
21
102962.875360
31
0.0
12
155374.206985
22
102965.701305
32
0.0
13
155374.206985
23
102965.701305
33
0.0
0
SOLID
8
superluminal_spots
10
155360.000000
20
103000.000000
30
0.0
11
155374.206985
21
102965.701305
31
0.0
12
155386.251085
22
102973.748915
32
0.0
13
155386.251085
23
102973.748915
33
0.0
0
SOLID
8
superluminal_spots
10
155360.000000
20
103000.000000
30
0.0
11
155386.251085
21
102973.748915
31
0.0
12
155394.298695
22
102985.793015
32
0.0
13
155394.298695
23
102985.793015
33
0.0
0
SOLID
8
superluminal_spots
10
155360.000000
20
103000.000000
30
0.0
11
155394.298695
21
102985.793015
31
0.0
12
155397.124640
22
103000.000000
32
0.0
13
155397.124640
23
103000.000000
33
0.0
0
CIRCLE
8
superluminal_spots
10
157620.0000
20
103000.0000
30
0.0
40
88.3920
0
SOLID
8
superluminal_spots
10
157620.000000
20
103000.000000
30
0.0
11
157657.124640
21
103000.000000
31
0.0
12
157654.298695
22
103014.206985
32
0.0
13
157654.298695
23
103014.206985
33
0.0
0
SOLID
8
superluminal_spots
10
157620.000000
20
103000.000000
30
0.0
11
157654.298695
21
103014.206985
31
0.0
12
157646.251085
22
103026.251085
32
0.0
13
157646.251085
23
103026.251085
33
0.0
0
SOLID
8
superluminal_spots
10
157620.000000
20
103000.000000
30
0.0
11
157646.251085
21
103026.251085
31
0.0
12
157634.206985
22
103034.298695
32
0.0
13
157634.206985
23
103034.298695
33
0.0
0
SOLID
8
superluminal_spots
10
157620.000000
20
103000.000000
30
0.0
11
157634.206985
21
103034.298695
31
0.0
12
157620.000000
22
103037.124640
32
0.0
13
157620.000000
23
103037.124640
33
0.0
0
SOLID
8
superluminal_spots
10
157620.000000
20
103000.000000
30
0.0
11
157620.000000
21
103037.124640
31
0.0
12
157605.793015
22
103034.298695
32
0.0
13
157605.793015
23
103034.298695
33
0.0
0
SOLID
8
superluminal_spots
10
157620.000000
20
103000.000000
30
0.0
11
157605.793015
21
103034.298695
31
0.0
12
157593.748915
22
103026.251085
32
0.0
13
157593.748915
23
103026.251085
33
0.0
0
SOLID
8
superluminal_spots
10
157620.000000
20
103000.000000
30
0.0
11
157593.748915
21
103026.251085
31
0.0
12
157585.701305
22
103014.206985
32
0.0
13
157585.701305
23
103014.206985
33
0.0
0
SOLID
8
superluminal_spots
10
157620.000000
20
103000.000000
30
0.0
11
157585.701305
21
103014.206985
31
0.0
12
157582.875360
22
103000.000000
32
0.0
13
157582.875360
23
103000.000000
33
0.0
0
SOLID
8
superluminal_spots
10
157620.000000
20
103000.000000
30
0.0
11
157582.875360
21
103000.000000
31
0.0
12
157585.701305
22
102985.793015
32
0.0
13
157585.701305
23
102985.793015
33
0.0
0
SOLID
8
superluminal_spots
10
157620.000000
20
103000.000000
30
0.0
11
157585.701305
21
102985.793015
31
0.0
12
157593.748915
22
102973.748915
32
0.0
13
157593.748915
23
102973.748915
33
0.0
0
SOLID
8
superluminal_spots
10
157620.000000
20
103000.000000
30
0.0
11
157593.748915
21
102973.748915
31
0.0
12
157605.793015
22
102965.701305
32
0.0
13
157605.793015
23
102965.701305
33
0.0
0
SOLID
8
superluminal_spots
10
157620.000000
20
103000.000000
30
0.0
11
157605.793015
21
102965.701305
31
0.0
12
157620.000000
22
102962.875360
32
0.0
13
157620.000000
23
102962.875360
33
0.0
0
SOLID
8
superluminal_spots
10
157620.000000
20
103000.000000
30
0.0
11
157620.000000
21
102962.875360
31
0.0
12
157634.206985
22
102965.701305
32
0.0
13
157634.206985
23
102965.701305
33
0.0
0
SOLID
8
superluminal_spots
10
157620.000000
20
103000.000000
30
0.0
11
157634.206985
21
102965.701305
31
0.0
12
157646.251085
22
102973.748915
32
0.0
13
157646.251085
23
102973.748915
33
0.0
0
SOLID
8
superluminal_spots
10
157620.000000
20
103000.000000
30
0.0
11
157646.251085
21
102973.748915
31
0.0
12
157654.298695
22
102985.793015
32
0.0
13
157654.298695
23
102985.793015
33
0.0
0
SOLID
8
superluminal_spots
10
157620.000000
20
103000.000000
30
0.0
11
157654.298695
21
102985.793015
31
0.0
12
157657.124640
22
103000.000000
32
0.0
13
157657.124640
23
103000.000000
33
0.0
0
CIRCLE
8
superluminal_spots
10
159880.0000
20
103000.0000
30
0.0
40
88.3920
0
SOLID
8
superluminal_spots
10
159880.000000
20
103000.000000
30
0.0
11
159917.124640
21
103000.000000
31
0.0
12
159914.298695
22
103014.206985
32
0.0
13
159914.298695
23
103014.206985
33
0.0
0
SOLID
8
superluminal_spots
10
159880.000000
20
103000.000000
30
0.0
11
159914.298695
21
103014.206985
31
0.0
12
159906.251085
22
103026.251085
32
0.0
13
159906.251085
23
103026.251085
33
0.0
0
SOLID
8
superluminal_spots
10
159880.000000
20
103000.000000
30
0.0
11
159906.251085
21
103026.251085
31
0.0
12
159894.206985
22
103034.298695
32
0.0
13
159894.206985
23
103034.298695
33
0.0
0
SOLID
8
superluminal_spots
10
159880.000000
20
103000.000000
30
0.0
11
159894.206985
21
103034.298695
31
0.0
12
159880.000000
22
103037.124640
32
0.0
13
159880.000000
23
103037.124640
33
0.0
0
SOLID
8
superluminal_spots
10
159880.000000
20
103000.000000
30
0.0
11
159880.000000
21
103037.124640
31
0.0
12
159865.793015
22
103034.298695
32
0.0
13
159865.793015
23
103034.298695
33
0.0
0
SOLID
8
superluminal_spots
10
159880.000000
20
103000.000000
30
0.0
11
159865.793015
21
103034.298695
31
0.0
12
159853.748915
22
103026.251085
32
0.0
13
159853.748915
23
103026.251085
33
0.0
0
SOLID
8
superluminal_spots
10
159880.000000
20
103000.000000
30
0.0
11
159853.748915
21
103026.251085
31
0.0
12
159845.701305
22
103014.206985
32
0.0
13
159845.701305
23
103014.206985
33
0.0
0
SOLID
8
superluminal_spots
10
159880.000000
20
103000.000000
30
0.0
11
159845.701305
21
103014.206985
31
0.0
12
159842.875360
22
103000.000000
32
0.0
13
159842.875360
23
103000.000000
33
0.0
0
SOLID
8
superluminal_spots
10
159880.000000
20
103000.000000
30
0.0
11
159842.875360
21
103000.000000
31
0.0
12
159845.701305
22
102985.793015
32
0.0
13
159845.701305
23
102985.793015
33
0.0
0
SOLID
8
superluminal_spots
10
159880.000000
20
103000.000000
30
0.0
11
159845.701305
21
102985.793015
31
0.0
12
159853.748915
22
102973.748915
32
0.0
13
159853.748915
23
102973.748915
33
0.0
0
SOLID
8
superluminal_spots
10
159880.000000
20
103000.000000
30
0.0
11
159853.748915
21
102973.748915
31
0.0
12
159865.793015
22
102965.701305
32
0.0
13
159865.793015
23
102965.701305
33
0.0
0
SOLID
8
superluminal_spots
10
159880.000000
20
103000.000000
30
0.0
11
159865.793015
21
102965.701305
31
0.0
12
159880.000000
22
102962.875360
32
0.0
13
159880.000000
23
102962.875360
33
0.0
0
SOLID
8
superluminal_spots
10
159880.000000
20
103000.000000
30
0.0
11
159880.000000
21
102962.875360
31
0.0
12
159894.206985
22
102965.701305
32
0.0
13
159894.206985
23
102965.701305
33
0.0
0
SOLID
8
superluminal_spots
10
159880.000000
20
103000.000000
30
0.0
11
159894.206985
21
102965.701305
31
0.0
12
159906.251085
22
102973.748915
32
0.0
13
159906.251085
23
102973.748915
33
0.0
0
SOLID
8
superluminal_spots
10
159880.000000
20
103000.000000
30
0.0
11
159906.251085
21
102973.748915
31
0.0
12
159914.298695
22
102985.793015
32
0.0
13
159914.298695
23
102985.793015
33
0.0
0
SOLID
8
superluminal_spots
10
159880.000000
20
103000.000000
30
0.0
11
159914.298695
21
102985.793015
31
0.0
12
159917.124640
22
103000.000000
32
0.0
13
159917.124640
23
103000.000000
33
0.0
0
CIRCLE
8
superluminal_spots
10
156500.0000
20
101000.0000
30
0.0
40
152.4000
0
SOLID
8
superluminal_spots
10
156500.000000
20
101000.000000
30
0.0
11
156564.008000
21
101000.000000
31
0.0
12
156559.135681
22
101024.494801
32
0.0
13
156559.135681
23
101024.494801
33
0.0
0
SOLID
8
superluminal_spots
10
156500.000000
20
101000.000000
30
0.0
11
156559.135681
21
101024.494801
31
0.0
12
156545.260491
22
101045.260491
32
0.0
13
156545.260491
23
101045.260491
33
0.0
0
SOLID
8
superluminal_spots
10
156500.000000
20
101000.000000
30
0.0
11
156545.260491
21
101045.260491
31
0.0
12
156524.494801
22
101059.135681
32
0.0
13
156524.494801
23
101059.135681
33
0.0
0
SOLID
8
superluminal_spots
10
156500.000000
20
101000.000000
30
0.0
11
156524.494801
21
101059.135681
31
0.0
12
156500.000000
22
101064.008000
32
0.0
13
156500.000000
23
101064.008000
33
0.0
0
SOLID
8
superluminal_spots
10
156500.000000
20
101000.000000
30
0.0
11
156500.000000
21
101064.008000
31
0.0
12
156475.505199
22
101059.135681
32
0.0
13
156475.505199
23
101059.135681
33
0.0
0
SOLID
8
superluminal_spots
10
156500.000000
20
101000.000000
30
0.0
11
156475.505199
21
101059.135681
31
0.0
12
156454.739509
22
101045.260491
32
0.0
13
156454.739509
23
101045.260491
33
0.0
0
SOLID
8
superluminal_spots
10
156500.000000
20
101000.000000
30
0.0
11
156454.739509
21
101045.260491
31
0.0
12
156440.864319
22
101024.494801
32
0.0
13
156440.864319
23
101024.494801
33
0.0
0
SOLID
8
superluminal_spots
10
156500.000000
20
101000.000000
30
0.0
11
156440.864319
21
101024.494801
31
0.0
12
156435.992000
22
101000.000000
32
0.0
13
156435.992000
23
101000.000000
33
0.0
0
SOLID
8
superluminal_spots
10
156500.000000
20
101000.000000
30
0.0
11
156435.992000
21
101000.000000
31
0.0
12
156440.864319
22
100975.505199
32
0.0
13
156440.864319
23
100975.505199
33
0.0
0
SOLID
8
superluminal_spots
10
156500.000000
20
101000.000000
30
0.0
11
156440.864319
21
100975.505199
31
0.0
12
156454.739509
22
100954.739509
32
0.0
13
156454.739509
23
100954.739509
33
0.0
0
SOLID
8
superluminal_spots
10
156500.000000
20
101000.000000
30
0.0
11
156454.739509
21
100954.739509
31
0.0
12
156475.505199
22
100940.864319
32
0.0
13
156475.505199
23
100940.864319
33
0.0
0
SOLID
8
superluminal_spots
10
156500.000000
20
101000.000000
30
0.0
11
156475.505199
21
100940.864319
31
0.0
12
156500.000000
22
100935.992000
32
0.0
13
156500.000000
23
100935.992000
33
0.0
0
SOLID
8
superluminal_spots
10
156500.000000
20
101000.000000
30
0.0
11
156500.000000
21
100935.992000
31
0.0
12
156524.494801
22
100940.864319
32
0.0
13
156524.494801
23
100940.864319
33
0.0
0
SOLID
8
superluminal_spots
10
156500.000000
20
101000.000000
30
0.0
11
156524.494801
21
100940.864319
31
0.0
12
156545.260491
22
100954.739509
32
0.0
13
156545.260491
23
100954.739509
33
0.0
0
SOLID
8
superluminal_spots
10
156500.000000
20
101000.000000
30
0.0
11
156545.260491
21
100954.739509
31
0.0
12
156559.135681
22
100975.505199
32
0.0
13
156559.135681
23
100975.505199
33
0.0
0
SOLID
8
superluminal_spots
10
156500.000000
20
101000.000000
30
0.0
11
156559.135681
21
100975.505199
31
0.0
12
156564.008000
22
101000.000000
32
0.0
13
156564.008000
23
101000.000000
33
0.0
0
LINE
8
superluminal_spots
10
156500.0000
20
100740.9200
30
0.0
11
156500.0000
21
101259.0800
31
0.0
0
POLYLINE
8
superluminal_led_strips
66
1
70
1
10
0.0
20
0.0
30
0.0
0
VERTEX
8
superluminal_led_strips
10
152400.000000
20
98400.000000
30
0.0
0
VERTEX
8
superluminal_led_strips
10
160600.000000
20
98400.000000
30
0.0
0
VERTEX
8
superluminal_led_strips
10
160600.000000
20
103600.000000
30
0.0
0
VERTEX
8
superluminal_led_strips
10
152400.000000
20
103600.000000
30
0.0
0
SEQEND
8
superluminal_led_strips
0
SOLID
8
superluminal_reverse_coves
10
152500.000000
20
103600.000000
30
0.0
11
160500.000000
21
103600.000000
31
0.0
12
152500.000000
22
103400.000000
32
0.0
13
160500.000000
23
103400.000000
33
0.0
0
POLYLINE
8
superluminal_reverse_coves
66
1
70
1
10
0.0
20
0.0
30
0.0
0
VERTEX
8
superluminal_reverse_coves
10
152500.000000
20
103600.000000
30
0.0
0
VERTEX
8
superluminal_reverse_coves
10
160500.000000
20
103600.000000
30
0.0
0
VERTEX
8
superluminal_reverse_coves
10
160500.000000
20
103400.000000
30
0.0
0
VERTEX
8
superluminal_reverse_coves
10
152500.000000
20
103400.000000
30
0.0
0
SEQEND
8
superluminal_reverse_coves
0
POLYLINE
8
superluminal_led_strips
66
1
70
0
10
0.0
20
0.0
30
0.0
0
VERTEX
8
superluminal_led_strips
10
153000.000000
20
98900.000000
30
0.0
0
VERTEX
8
superluminal_led_strips
10
156000.000000
20
98900.000000
30
0.0
0
SEQEND
8
superluminal_led_strips
0
ENDSEC
0
EOF