0
SECTION
2
HEADER
9
$ACADVER
1
AC1009
9
$INSUNITS
70
2
9
$LTSCALE
40
1.0
0
ENDSEC
0
SECTION
2
TABLES
0
TABLE
2
LTYPE
70
2
0
LTYPE
2
CONTINUOUS
70
0
3
Solid line
72
65
73
0
40
0.000000
0
LTYPE
2
DOTTED
70
0
3
Dotted . . . . . . . . . . . . . . . . . .
72
65
73
2
40
0.150000
49
0.050000
49
-0.100000
0
ENDTAB
0
TABLE
2
LAYER
70
8
0
LAYER
2
superluminal_spots
70
0
62
5
6
CONTINUOUS
0
LAYER
2
superluminal_led_strips
70
0
62
4
6
DOTTED
0
LAYER
2
superluminal_reverse_coves
70
0
62
2
6
CONTINUOUS
0
LAYER
2
superluminal_tracks
70
0
62
7
6
CONTINUOUS
0
LAYER
2
superluminal_track_fixtures
70
0
62
30
6
CONTINUOUS
0
LAYER
2
superluminal_decorative
70
0
62
6
6
CONTINUOUS
0
LAYER
2
superluminal_ceiling_objects
70
0
62
1
6
CONTINUOUS
0
LAYER
2
superluminal_rooms
70
0
62
3
6
CONTINUOUS
0
ENDTAB
0
ENDSEC
0
SECTION
2
ENTITIES
0
POLYLINE
8
superluminal_rooms
66
1
70
1
10
0.0
20
0.0
30
0.0
0
VERTEX
8
superluminal_rooms
10
1.000000
20
17.000000
30
0.0
0
VERTEX
8
superluminal_rooms
10
25.000000
20
17.000000
30
0.0
0
VERTEX
8
superluminal_rooms
10
25.000000
20
1.000000
30
0.0
0
VERTEX
8
superluminal_rooms
10
1.000000
20
1.000000
30
0.0
0
SEQEND
8
superluminal_rooms
0
POLYLINE
8
superluminal_rooms
66
1
70
1
10
0.0
20
0.0
30
0.0
0
VERTEX
8
superluminal_rooms
10
27.000000
20
17.000000
30
0.0
0
VERTEX
8
superluminal_rooms
10
37.000000
20
17.000000
30
0.0
0
VERTEX
8
superluminal_rooms
10
37.000000
20
8.000000
30
0.0
0
VERTEX
8
superluminal_rooms
10
27.000000
20
8.000000
30
0.0
0
SEQEND
8
superluminal_rooms
0
CIRCLE
8
superluminal_ceiling_objects
10
8.0000
20
10.0000
30
0.0
40
2.2000
0
LINE
8
superluminal_ceiling_objects
10
7.7000
20
10.0000
30
0.0
11
8.3000
21
10.0000
31
0.0
0
LINE
8
superluminal_ceiling_objects
10
8.0000
20
9.7000
30
0.0
11
8.0000
21
10.3000
31
0.0
0
POLYLINE
8
superluminal_ceiling_objects
66
1
70
1
10
0.0
20
0.0
30
0.0
0
VERTEX
8
superluminal_ceiling_objects
10
18.500000
20
15.750000
30
0.0
0
VERTEX
8
superluminal_ceiling_objects
10
21.500000
20
15.750000
30
0.0
0
VERTEX
8
superluminal_ceiling_objects
10
21.500000
20
14.250000
30
0.0
0
VERTEX
8
superluminal_ceiling_objects
10
18.500000
20
14.250000
30
0.0
0
SEQEND
8
superluminal_ceiling_objects
0
CIRCLE
8
superluminal_decorative
10
15.0000
20
5.0000
30
0.0
40
1.4000
0
SOLID
8
superluminal_decorative
10
15.000000
20
5.000000
30
0.0
11
15.121800
21
5.000000
31
0.0
12
15.112529
22
5.046611
32
0.0
13
15.112529
23
5.046611
33
0.0
0
SOLID
8
superluminal_decorative
10
15.000000
20
5.000000
30
0.0
11
15.112529
21
5.046611
31
0.0
12
15.086126
22
5.086126
32
0.0
13
15.086126
23
5.086126
33
0.0
0
SOLID
8
superluminal_decorative
10
15.000000
20
5.000000
30
0.0
11
15.086126
21
5.086126
31
0.0
12
15.046611
22
5.112529
32
0.0
13
15.046611
23
5.112529
33
0.0
0
SOLID
8
superluminal_decorative
10
15.000000
20
5.000000
30
0.0
11
15.046611
21
5.112529
31
0.0
12
15.000000
22
5.121800
32
0.0
13
15.000000
23
5.121800
33
0.0
0
SOLID
8
superluminal_decorative
10
15.000000
20
5.000000
30
0.0
11
15.000000
21
5.121800
31
0.0
12
14.953389
22
5.112529
32
0.0
13
14.953389
23
5.112529
33
0.0
0
SOLID
8
superluminal_decorative
10
15.000000
20
5.000000
30
0.0
11
14.953389
21
5.112529
31
0.0
12
14.913874
22
5.086126
32
0.0
13
14.913874
23
5.086126
33
0.0
0
SOLID
8
superluminal_decorative
10
15.000000
20
5.000000
30
0.0
11
14.913874
21
5.086126
31
0.0
12
14.887471
22
5.046611
32
0.0
13
14.887471
23
5.046611
33
0.0
0
SOLID
8
superluminal_decorative
10
15.000000
20
5.000000
30
0.0
11
14.887471
21
5.046611
31
0.0
12
14.878200
22
5.000000
32
0.0
13
14.878200
23
5.000000
33
0.0
0
SOLID
8
superluminal_decorative
10
15.000000
20
5.000000
30
0.0
11
14.878200
21
5.000000
31
0.0
12
14.887471
22
4.953389
32
0.0
13
14.887471
23
4.953389
33
0.0
0
SOLID
8
superluminal_decorative
10
15.000000
20
5.000000
30
0.0
11
14.887471
21
4.953389
31
0.0
12
14.913874
22
4.913874
32
0.0
13
14.913874
23
4.913874
33
0.0
0
SOLID
8
superluminal_decorative
10
15.000000
20
5.000000
30
0.0
11
14.913874
21
4.913874
31
0.0
12
14.953389
22
4.887471
32
0.0
13
14.953389
23
4.887471
33
0.0
0
SOLID
8
superluminal_decorative
10
15.000000
20
5.000000
30
0.0
11
14.953389
21
4.887471
31
0.0
12
15.000000
22
4.878200
32
0.0
13
15.000000
23
4.878200
33
0.0
0
SOLID
8
superluminal_decorative
10
15.000000
20
5.000000
30
0.0
11
15.000000
21
4.878200
31
0.0
12
15.046611
22
4.887471
32
0.0
13
15.046611
23
4.887471
33
0.0
0
SOLID
8
superluminal_decorative
10
15.000000
20
5.000000
30
0.0
11
15.046611
21
4.887471
31
0.0
12
15.086126
22
4.913874
32
0.0
13
15.086126
23
4.913874
33
0.0
0
SOLID
8
superluminal_decorative
10
15.000000
20
5.000000
30
0.0
11
15.086126
21
4.913874
31
0.0
12
15.112529
22
4.953389
32
0.0
13
15.112529
23
4.953389
33
0.0
0
SOLID
8
superluminal_decorative
10
15.000000
20
5.000000
30
0.0
11
15.112529
21
4.953389
31
0.0
12
15.121800
22
5.000000
32
0.0
13
15.121800
23
5.000000
33
0.0
0
CIRCLE
8
superluminal_spots
10
3.0000
20
15.0000
30
0.0
40
0.2900
0
SOLID
8
superluminal_spots
10
3.000000
20
15.000000
30
0.0
11
3.121800
21
15.000000
31
0.0
12
3.112529
22
15.046611
32
0.0
13
3.112529
23
15.046611
33
0.0
0
SOLID
8
superluminal_spots
10
3.000000
20
15.000000
30
0.0
11
3.112529
21
15.046611
31
0.0
12
3.086126
22
15.086126
32
0.0
13
3.086126
23
15.086126
33
0.0
0
SOLID
8
superluminal_spots
10
3.000000
20
15.000000
30
0.0
11
3.086126
21
15.086126
31
0.0
12
3.046611
22
15.112529
32
0.0
13
3.046611
23
15.112529
33
0.0
0
SOLID
8
superluminal_spots
10
3.000000
20
15.000000
30
0.0
11
3.046611
21
15.112529
31
0.0
12
3.000000
22
15.121800
32
0.0
13
3.000000
23
15.121800
33
0.0
0
SOLID
8
superluminal_spots
10
3.000000
20
15.000000
30
0.0
11
3.000000
21
15.121800
31
0.0
12
2.953389
22
15.112529
32
0.0
13
2.953389
23
15.112529
33
0.0
0
SOLID
8
superluminal_spots
10
3.000000
20
15.000000
30
0.0
11
2.953389
21
15.112529
31
0.0
12
2.913874
22
15.086126
32
0.0
13
2.913874
23
15.086126
33
0.0
0
SOLID
8
superluminal_spots
10
3.000000
20
15.000000
30
0.0
11
2.913874
21
15.086126
31
0.0
12
2.887471
22
15.046611
32
0.0
13
2.887471
23
15.046611
33
0.0
0
SOLID
8
superluminal_spots
10
3.000000
20
15.000000
30
0.0
11
2.887471
21
15.046611
31
0.0
12
2.878200
22
15.000000
32
0.0
13
2.878200
23
15.000000
33
0.0
0
SOLID
8
superluminal_spots
10
3.000000
20
15.000000
30
0.0
11
2.878200
21
15.000000
31
0.0
12
2.887471
22
14.953389
32
0.0
13
2.887471
23
14.953389
33
0.0
0
SOLID
8
superluminal_spots
10
3.000000
20
15.000000
30
0.0
11
2.887471
21
14.953389
31
0.0
12
2.913874
22
14.913874
32
0.0
13
2.913874
23
14.913874
33
0.0
0
SOLID
8
superluminal_spots
10
3.000000
20
15.000000
30
0.0
11
2.913874
21
14.913874
31
0.0
12
2.953389
22
14.887471
32
0.0
13
2.953389
23
14.887471
33
0.0
0
SOLID
8
superluminal_spots
10
3.000000
20
15.000000
30
0.0
11
2.953389
21
14.887471
31
0.0
12
3.000000
22
14.878200
32
0.0
13
3.000000
23
14.878200
33
0.0
0
SOLID
8
superluminal_spots
10
3.000000
20
15.000000
30
0.0
11
3.000000
21
14.878200
31
0.0
12
3.046611
22
14.887471
32
0.0
13
3.046611
23
14.887471
33
0.0
0
SOLID
8
superluminal_spots
10
3.000000
20
15.000000
30
0.0
11
3.046611
21
14.887471
31
0.0
12
3.086126
22
14.913874
32
0.0
13
3.086126
23
14.913874
33
0.0
0
SOLID
8
superluminal_spots
10
3.000000
20
15.000000
30
0.0
11
3.086126
21
14.913874
31
0.0
12
3.112529
22
14.953389
32
0.0
13
3.112529
23
14.953389
33
0.0
0
SOLID
8
superluminal_spots
10
3.000000
20
15.000000
30
0.0
11
3.112529
21
14.953389
31
0.0
12
3.121800
22
15.000000
32
0.0
13
3.121800
23
15.000000
33
0.0
0
CIRCLE
8
superluminal_spots
10
9.0000
20
15.0000
30
0.0
40
0.2900
0
SOLID
8
superluminal_spots
10
9.000000
20
15.000000
30
0.0
11
9.121800
21
15.000000
31
0.0
12
9.112529
22
15.046611
32
0.0
13
9.112529
23
15.046611
33
0.0
0
SOLID
8
superluminal_spots
10
9.000000
20
15.000000
30
0.0
11
9.112529
21
15.046611
31
0.0
12
9.086126
22
15.086126
32
0.0
13
9.086126
23
15.086126
33
0.0
0
SOLID
8
superluminal_spots
10
9.000000
20
15.000000
30
0.0
11
9.086126
21
15.086126
31
0.0
12
9.046611
22
15.112529
32
0.0
13
9.046611
23
15.112529
33
0.0
0
SOLID
8
superluminal_spots
10
9.000000
20
15.000000
30
0.0
11
9.046611
21
15.112529
31
0.0
12
9.000000
22
15.121800
32
0.0
13
9.000000
23
15.121800
33
0.0
0
SOLID
8
superluminal_spots
10
9.000000
20
15.000000
30
0.0
11
9.000000
21
15.121800
31
0.0
12
8.953389
22
15.112529
32
0.0
13
8.953389
23
15.112529
33
0.0
0
SOLID
8
superluminal_spots
10
9.000000
20
15.000000
30
0.0
11
8.953389
21
15.112529
31
0.0
12
8.913874
22
15.086126
32
0.0
13
8.913874
23
15.086126
33
0.0
0
SOLID
8
superluminal_spots
10
9.000000
20
15.000000
30
0.0
11
8.913874
21
15.086126
31
0.0
12
8.887471
22
15.046611
32
0.0
13
8.887471
23
15.046611
33
0.0
0
SOLID
8
superluminal_spots
10
9.000000
20
15.000000
30
0.0
11
8.887471
21
15.046611
31
0.0
12
8.878200
22
15.000000
32
0.0
13
8.878200
23
15.000000
33
0.0
0
SOLID
8
superluminal_spots
10
9.000000
20
15.000000
30
0.0
11
8.878200
21
15.000000
31
0.0
12
8.887471
22
14.953389
32
0.0
13
8.887471
23
14.953389
33
0.0
0
SOLID
8
superluminal_spots
10
9.000000
20
15.000000
30
0.0
11
8.887471
21
14.953389
31
0.0
12
8.913874
22
14.913874
32
0.0
13
8.913874
23
14.913874
33
0.0
0
SOLID
8
superluminal_spots
10
9.000000
20
15.000000
30
0.0
11
8.913874
21
14.913874
31
0.0
12
8.953389
22
14.887471
32
0.0
13
8.953389
23
14.887471
33
0.0
0
SOLID
8
superluminal_spots
10
9.000000
20
15.000000
30
0.0
11
8.953389
21
14.887471
31
0.0
12
9.000000
22
14.878200
32
0.0
13
9.000000
23
14.878200
33
0.0
0
SOLID
8
superluminal_spots
10
9.000000
20
15.000000
30
0.0
11
9.000000
21
14.878200
31
0.0
12
9.046611
22
14.887471
32
0.0
13
9.046611
23
14.887471
33
0.0
0
SOLID
8
superluminal_spots
10
9.000000
20
15.000000
30
0.0
11
9.046611
21
14.887471
31
0.0
12
9.086126
22
14.913874
32
0.0
13
9.086126
23
14.913874
33
0.0
0
SOLID
8
superluminal_spots
10
9.000000
20
15.000000
30
0.0
11
9.086126
21
14.913874
31
0.0
12
9.112529
22
14.953389
32
0.0
13
9.112529
23
14.953389
33
0.0
0
SOLID
8
superluminal_spots
10
9.000000
20
15.000000
30
0.0
11
9.112529
21
14.953389
31
0.0
12
9.121800
22
15.000000
32
0.0
13
9.121800
23
15.000000
33
0.0
0
CIRCLE
8
superluminal_spots
10
15.0000
20
15.0000
30
0.0
40
0.2900
0
SOLID
8
superluminal_spots
10
15.000000
20
15.000000
30
0.0
11
15.121800
21
15.000000
31
0.0
12
15.112529
22
15.046611
32
0.0
13
15.112529
23
15.046611
33
0.0
0
SOLID
8
superluminal_spots
10
15.000000
20
15.000000
30
0.0
11
15.112529
21
15.046611
31
0.0
12
15.086126
22
15.086126
32
0.0
13
15.086126
23
15.086126
33
0.0
0
SOLID
8
superluminal_spots
10
15.000000
20
15.000000
30
0.0
11
15.086126
21
15.086126
31
0.0
12
15.046611
22
15.112529
32
0.0
13
15.046611
23
15.112529
33
0.0
0
SOLID
8
superluminal_spots
10
15.000000
20
15.000000
30
0.0
11
15.046611
21
15.112529
31
0.0
12
15.000000
22
15.121800
32
0.0
13
15.000000
23
15.121800
33
0.0
0
SOLID
8
superluminal_spots
10
15.000000
20
15.000000
30
0.0
11
15.000000
21
15.121800
31
0.0
12
14.953389
22
15.112529
32
0.0
13
14.953389
23
15.112529
33
0.0
0
SOLID
8
superluminal_spots
10
15.000000
20
15.000000
30
0.0
11
14.953389
21
15.112529
31
0.0
12
14.913874
22
15.086126
32
0.0
13
14.913874
23
15.086126
33
0.0
0
SOLID
8
superluminal_spots
10
15.000000
20
15.000000
30
0.0
11
14.913874
21
15.086126
31
0.0
12
14.887471
22
15.046611
32
0.0
13
14.887471
23
15.046611
33
0.0
0
SOLID
8
superluminal_spots
10
15.000000
20
15.000000
30
0.0
11
14.887471
21
15.046611
31
0.0
12
14.878200
22
15.000000
32
0.0
13
14.878200
23
15.000000
33
0.0
0
SOLID
8
superluminal_spots
10
15.000000
20
15.000000
30
0.0
11
14.878200
21
15.000000
31
0.0
12
14.887471
22
14.953389
32
0.0
13
14.887471
23
14.953389
33
0.0
0
SOLID
8
superluminal_spots
10
15.000000
20
15.000000
30
0.0
11
14.887471
21
14.953389
31
0.0
12
14.913874
22
14.913874
32
0.0
13
14.913874
23
14.913874
33
0.0
0
SOLID
8
superluminal_spots
10
15.000000
20
15.000000
30
0.0
11
14.913874
21
14.913874
31
0.0
12
14.953389
22
14.887471
32
0.0
13
14.953389
23
14.887471
33
0.0
0
SOLID
8
superluminal_spots
10
15.000000
20
15.000000
30
0.0
11
14.953389
21
14.887471
31
0.0
12
15.000000
22
14.878200
32
0.0
13
15.000000
23
14.878200
33
0.0
0
SOLID
8
superluminal_spots
10
15.000000
20
15.000000
30
0.0
11
15.000000
21
14.878200
31
0.0
12
15.046611
22
14.887471
32
0.0
13
15.046611
23
14.887471
33
0.0
0
SOLID
8
superluminal_spots
10
15.000000
20
15.000000
30
0.0
11
15.046611
21
14.887471
31
0.0
12
15.086126
22
14.913874
32
0.0
13
15.086126
23
14.913874
33
0.0
0
SOLID
8
superluminal_spots
10
15.000000
20
15.000000
30
0.0
11
15.086126
21
14.913874
31
0.0
12
15.112529
22
14.953389
32
0.0
13
15.112529
23
14.953389
33
0.0
0
SOLID
8
superluminal_spots
10
15.000000
20
15.000000
30
0.0
11
15.112529
21
14.953389
31
0.0
12
15.121800
22
15.000000
32
0.0
13
15.121800
23
15.000000
33
0.0
0
CIRCLE
8
superluminal_spots
10
21.0000
20
15.0000
30
0.0
40
0.2900
0
SOLID
8
superluminal_spots
10
21.000000
20
15.000000
30
0.0
11
21.121800
21
15.000000
31
0.0
12
21.112529
22
15.046611
32
0.0
13
21.112529
23
15.046611
33
0.0
0
SOLID
8
superluminal_spots
10
21.000000
20
15.000000
30
0.0
11
21.112529
21
15.046611
31
0.0
12
21.086126
22
15.086126
32
0.0
13
21.086126
23
15.086126
33
0.0
0
SOLID
8
superluminal_spots
10
21.000000
20
15.000000
30
0.0
11
21.086126
21
15.086126
31
0.0
12
21.046611
22
15.112529
32
0.0
13
21.046611
23
15.112529
33
0.0
0
SOLID
8
superluminal_spots
10
21.000000
20
15.000000
30
0.0
11
21.046611
21
15.112529
31
0.0
12
21.000000
22
15.121800
32
0.0
13
21.000000
23
15.121800
33
0.0
0
SOLID
8
superluminal_spots
10
21.000000
20
15.000000
30
0.0
11
21.000000
21
15.121800
31
0.0
12
20.953389
22
15.112529
32
0.0
13
20.953389
23
15.112529
33
0.0
0
SOLID
8
superluminal_spots
10
21.000000
20
15.000000
30
0.0
11
20.953389
21
15.112529
31
0.0
12
20.913874
22
15.086126
32
0.0
13
20.913874
23
15.086126
33
0.0
0
SOLID
8
superluminal_spots
10
21.000000
20
15.000000
30
0.0
11
20.913874
21
15.086126
31
0.0
12
20.887471
22
15.046611
32
0.0
13
20.887471
23
15.046611
33
0.0
0
SOLID
8
superluminal_spots
10
21.000000
20
15.000000
30
0.0
11
20.887471
21
15.046611
31
0.0
12
20.878200
22
15.000000
32
0.0
13
20.878200
23
15.000000
33
0.0
0
SOLID
8
superluminal_spots
10
21.000000
20
15.000000
30
0.0
11
20.878200
21
15.000000
31
0.0
12
20.887471
22
14.953389
32
0.0
13
20.887471
23
14.953389
33
0.0
0
SOLID
8
superluminal_spots
10
21.000000
20
15.000000
30
0.0
11
20.887471
21
14.953389
31
0.0
12
20.913874
22
14.913874
32
0.0
13
20.913874
23
14.913874
33
0.0
0
SOLID
8
superluminal_spots
10
21.000000
20
15.000000
30
0.0
11
20.913874
21
14.913874
31
0.0
12
20.953389
22
14.887471
32
0.0
13
20.953389
23
14.887471
33
0.0
0
SOLID
8
superluminal_spots
10
21.000000
20
15.000000
30
0.0
11
20.953389
21
14.887471
31
0.0
12
21.000000
22
14.878200
32
0.0
13
21.000000
23
14.878200
33
0.0
0
SOLID
8
superluminal_spots
10
21.000000
20
15.000000
30
0.0
11
21.000000
21
14.878200
31
0.0
12
21.046611
22
14.887471
32
0.0
13
21.046611
23
14.887471
33
0.0
0
SOLID
8
superluminal_spots
10
21.000000
20
15.000000
30
0.0
11
21.046611
21
14.887471
31
0.0
12
21.086126
22
14.913874
32
0.0
13
21.086126
23
14.913874
33
0.0
0
SOLID
8
superluminal_spots
10
21.000000
20
15.000000
30
0.0
11
21.086126
21
14.913874
31
0.0
12
21.112529
22
14.953389
32
0.0
13
21.112529
23
14.953389
33
0.0
0
SOLID
8
superluminal_spots
10
21.000000
20
15.000000
30
0.0
11
21.112529
21
14.953389
31
0.0
12
21.121800
22
15.000000
32
0.0
13
21.121800
23
15.000000
33
0.0
0
CIRCLE
8
superluminal_spots
10
3.0000
20
10.0000
30
0.0
40
0.2900
0
SOLID
8
superluminal_spots
10
3.000000
20
10.000000
30
0.0
11
3.121800
21
10.000000
31
0.0
12
3.112529
22
10.046611
32
0.0
13
3.112529
23
10.046611
33
0.0
0
SOLID
8
superluminal_spots
10
3.000000
20
10.000000
30
0.0
11
3.112529
21
10.046611
31
0.0
12
3.086126
22
10.086126
32
0.0
13
3.086126
23
10.086126
33
0.0
0
SOLID
8
superluminal_spots
10
3.000000
20
10.000000
30
0.0
11
3.086126
21
10.086126
31
0.0
12
3.046611
22
10.112529
32
0.0
13
3.046611
23
10.112529
33
0.0
0
SOLID
8
superluminal_spots
10
3.000000
20
10.000000
30
0.0
11
3.046611
21
10.112529
31
0.0
12
3.000000
22
10.121800
32
0.0
13
3.000000
23
10.121800
33
0.0
0
SOLID
8
superluminal_spots
10
3.000000
20
10.000000
30
0.0
11
3.000000
21
10.121800
31
0.0
12
2.953389
22
10.112529
32
0.0
13
2.953389
23
10.112529
33
0.0
0
SOLID
8
superluminal_spots
10
3.000000
20
10.000000
30
0.0
11
2.953389
21
10.112529
31
0.0
12
2.913874
22
10.086126
32
0.0
13
2.913874
23
10.086126
33
0.0
0
SOLID
8
superluminal_spots
10
3.000000
20
10.000000
30
0.0
11
2.913874
21
10.086126
31
0.0
12
2.887471
22
10.046611
32
0.0
13
2.887471
23
10.046611
33
0.0
0
SOLID
8
superluminal_spots
10
3.000000
20
10.000000
30
0.0
11
2.887471
21
10.046611
31
0.0
12
2.878200
22
10.000000
32
0.0
13
2.878200
23
10.000000
33
0.0
0
SOLID
8
superluminal_spots
10
3.000000
20
10.000000
30
0.0
11
2.878200
21
10.000000
31
0.0
12
2.887471
22
9.953389
32
0.0
13
2.887471
23
9.953389
33
0.0
0
SOLID
8
superluminal_spots
10
3.000000
20
10.000000
30
0.0
11
2.887471
21
9.953389
31
0.0
12
2.913874
22
9.913874
32
0.0
13
2.913874
23
9.913874
33
0.0
0
SOLID
8
superluminal_spots
10
3.000000
20
10.000000
30
0.0
11
2.913874
21
9.913874
31
0.0
12
2.953389
22
9.887471
32
0.0
13
2.953389
23
9.887471
33
0.0
0
SOLID
8
superluminal_spots
10
3.000000
20
10.000000
30
0.0
11
2.953389
21
9.887471
31
0.0
12
3.000000
22
9.878200
32
0.0
13
3.000000
23
9.878200
33
0.0
0
SOLID
8
superluminal_spots
10
3.000000
20
10.000000
30
0.0
11
3.000000
21
9.878200
31
0.0
12
3.046611
22
9.887471
32
0.0
13
3.046611
23
9.887471
33
0.0
0
SOLID
8
superluminal_spots
10
3.000000
20
10.000000
30
0.0
11
3.046611
21
9.887471
31
0.0
12
3.086126
22
9.913874
32
0.0
13
3.086126
23
9.913874
33
0.0
0
SOLID
8
superluminal_spots
10
3.000000
20
10.000000
30
0.0
11
3.086126
21
9.913874
31
0.0
12
3.112529
22
9.953389
32
0.0
13
3.112529
23
9.953389
33
0.0
0
SOLID
8
superluminal_spots
10
3.000000
20
10.000000
30
0.0
11
3.112529
21
9.953389
31
0.0
12
3.121800
22
10.000000
32
0.0
13
3.121800
23
10.000000
33
0.0
0
CIRCLE
8
superluminal_spots
10
9.0000
20
10.0000
30
0.0
40
0.2900
0
SOLID
8
superluminal_spots
10
9.000000
20
10.000000
30
0.0
11
9.121800
21
10.000000
31
0.0
12
9.112529
22
10.046611
32
0.0
13
9.112529
23
10.046611
33
0.0
0
SOLID
8
superluminal_spots
10
9.000000
20
10.000000
30
0.0
11
9.112529
21
10.046611
31
0.0
12
9.086126
22
10.086126
32
0.0
13
9.086126
23
10.086126
33
0.0
0
SOLID
8
superluminal_spots
10
9.000000
20
10.000000
30
0.0
11
9.086126
21
10.086126
31
0.0
12
9.046611
22
10.112529
32
0.0
13
9.046611
23
10.112529
33
0.0
0
SOLID
8
superluminal_spots
10
9.000000
20
10.000000
30
0.0
11
9.046611
21
10.112529
31
0.0
12
9.000000
22
10.121800
32
0.0
13
9.000000
23
10.121800
33
0.0
0
SOLID
8
superluminal_spots
10
9.000000
20
10.000000
30
0.0
11
9.000000
21
10.121800
31
0.0
12
8.953389
22
10.112529
32
0.0
13
8.953389
23
10.112529
33
0.0
0
SOLID
8
superluminal_spots
10
9.000000
20
10.000000
30
0.0
11
8.953389
21
10.112529
31
0.0
12
8.913874
22
10.086126
32
0.0
13
8.913874
23
10.086126
33
0.0
0
SOLID
8
superluminal_spots
10
9.000000
20
10.000000
30
0.0
11
8.913874
21
10.086126
31
0.0
12
8.887471
22
10.046611
32
0.0
13
8.887471
23
10.046611
33
0.0
0
SOLID
8
superluminal_spots
10
9.000000
20
10.000000
30
0.0
11
8.887471
21
10.046611
31
0.0
12
8.878200
22
10.000000
32
0.0
13
8.878200
23
10.000000
33
0.0
0
SOLID
8
superluminal_spots
10
9.000000
20
10.000000
30
0.0
11
8.878200
21
10.000000
31
0.0
12
8.887471
22
9.953389
32
0.0
13
8.887471
23
9.953389
33
0.0
0
SOLID
8
superluminal_spots
10
9.000000
20
10.000000
30
0.0
11
8.887471
21
9.953389
31
0.0
12
8.913874
22
9.913874
32
0.0
13
8.913874
23
9.913874
33
0.0
0
SOLID
8
superluminal_spots
10
9.000000
20
10.000000
30
0.0
11
8.913874
21
9.913874
31
0.0
12
8.953389
22
9.887471
32
0.0
13
8.953389
23
9.887471
33
0.0
0
SOLID
8
superluminal_spots
10
9.000000
20
10.000000
30
0.0
11
8.953389
21
9.887471
31
0.0
12
9.000000
22
9.878200
32
0.0
13
9.000000
23
9.878200
33
0.0
0
SOLID
8
superluminal_spots
10
9.000000
20
10.000000
30
0.0
11
9.000000
21
9.878200
31
0.0
12
9.046611
22
9.887471
32
0.0
13
9.046611
23
9.887471
33
0.0
0
SOLID
8
superluminal_spots
10
9.000000
20
10.000000
30
0.0
11
9.046611
21
9.887471
31
0.0
12
9.086126
22
9.913874
32
0.0
13
9.086126
23
9.913874
33
0.0
0
SOLID
8
superluminal_spots
10
9.000000
20
10.000000
30
0.0
11
9.086126
21
9.913874
31
0.0
12
9.112529
22
9.953389
32
0.0
13
9.112529
23
9.953389
33
0.0
0
SOLID
8
superluminal_spots
10
9.000000
20
10.000000
30
0.0
11
9.112529
21
9.953389
31
0.0
12
9.121800
22
10.000000
32
0.0
13
9.121800
23
10.000000
33
0.0
0
CIRCLE
8
superluminal_spots
10
15.0000
20
10.0000
30
0.0
40
0.2900
0
SOLID
8
superluminal_spots
10
15.000000
20
10.000000
30
0.0
11
15.121800
21
10.000000
31
0.0
12
15.112529
22
10.046611
32
0.0
13
15.112529
23
10.046611
33
0.0
0
SOLID
8
superluminal_spots
10
15.000000
20
10.000000
30
0.0
11
15.112529
21
10.046611
31
0.0
12
15.086126
22
10.086126
32
0.0
13
15.086126
23
10.086126
33
0.0
0
SOLID
8
superluminal_spots
10
15.000000
20
10.000000
30
0.0
11
15.086126
21
10.086126
31
0.0
12
15.046611
22
10.112529
32
0.0
13
15.046611
23
10.112529
33
0.0
0
SOLID
8
superluminal_spots
10
15.000000
20
10.000000
30
0.0
11
15.046611
21
10.112529
31
0.0
12
15.000000
22
10.121800
32
0.0
13
15.000000
23
10.121800
33
0.0
0
SOLID
8
superluminal_spots
10
15.000000
20
10.000000
30
0.0
11
15.000000
21
10.121800
31
0.0
12
14.953389
22
10.112529
32
0.0
13
14.953389
23
10.112529
33
0.0
0
SOLID
8
superluminal_spots
10
15.000000
20
10.000000
30
0.0
11
14.953389
21
10.112529
31
0.0
12
14.913874
22
10.086126
32
0.0
13
14.913874
23
10.086126
33
0.0
0
SOLID
8
superluminal_spots
10
15.000000
20
10.000000
30
0.0
11
14.913874
21
10.086126
31
0.0
12
14.887471
22
10.046611
32
0.0
13
14.887471
23
10.046611
33
0.0
0
SOLID
8
superluminal_spots
10
15.000000
20
10.000000
30
0.0
11
14.887471
21
10.046611
31
0.0
12
14.878200
22
10.000000
32
0.0
13
14.878200
23
10.000000
33
0.0
0
SOLID
8
superluminal_spots
10
15.000000
20
10.000000
30
0.0
11
14.878200
21
10.000000
31
0.0
12
14.887471
22
9.953389
32
0.0
13
14.887471
23
9.953389
33
0.0
0
SOLID
8
superluminal_spots
10
15.000000
20
10.000000
30
0.0
11
14.887471
21
9.953389
31
0.0
12
14.913874
22
9.913874
32
0.0
13
14.913874
23
9.913874
33
0.0
0
SOLID
8
superluminal_spots
10
15.000000
20
10.000000
30
0.0
11
14.913874
21
9.913874
31
0.0
12
14.953389
22
9.887471
32
0.0
13
14.953389
23
9.887471
33
0.0
0
SOLID
8
superluminal_spots
10
15.000000
20
10.000000
30
0.0
11
14.953389
21
9.887471
31
0.0
12
15.000000
22
9.878200
32
0.0
13
15.000000
23
9.878200
33
0.0
0
SOLID
8
superluminal_spots
10
15.000000
20
10.000000
30
0.0
11
15.000000
21
9.878200
31
0.0
12
15.046611
22
9.887471
32
0.0
13
15.046611
23
9.887471
33
0.0
0
SOLID
8
superluminal_spots
10
15.000000
20
10.000000
30
0.0
11
15.046611
21
9.887471
31
0.0
12
15.086126
22
9.913874
32
0.0
13
15.086126
23
9.913874
33
0.0
0
SOLID
8
superluminal_spots
10
15.000000
20
10.000000
30
0.0
11
15.086126
21
9.913874
31
0.0
12
15.112529
22
9.953389
32
0.0
13
15.112529
23
9.953389
33
0.0
0
SOLID
8
superluminal_spots
10
15.000000
20
10.000000
30
0.0
11
15.112529
21
9.953389
31
0.0
12
15.121800
22
10.000000
32
0.0
13
15.121800
23
10.000000
33
0.0
0
CIRCLE
8
superluminal_spots
10
21.0000
20
10.0000
30
0.0
40
0.2900
0
SOLID
8
superluminal_spots
10
21.000000
20
10.000000
30
0.0
11
21.121800
21
10.000000
31
0.0
12
21.112529
22
10.046611
32
0.0
13
21.112529
23
10.046611
33
0.0
0
SOLID
8
superluminal_spots
10
21.000000
20
10.000000
30
0.0
11
21.112529
21
10.046611
31
0.0
12
21.086126
22
10.086126
32
0.0
13
21.086126
23
10.086126
33
0.0
0
SOLID
8
superluminal_spots
10
21.000000
20
10.000000
30
0.0
11
21.086126
21
10.086126
31
0.0
12
21.046611
22
10.112529
32
0.0
13
21.046611
23
10.112529
33
0.0
0
SOLID
8
superluminal_spots
10
21.000000
20
10.000000
30
0.0
11
21.046611
21
10.112529
31
0.0
12
21.000000
22
10.121800
32
0.0
13
21.000000
23
10.121800
33
0.0
0
SOLID
8
superluminal_spots
10
21.000000
20
10.000000
30
0.0
11
21.000000
21
10.121800
31
0.0
12
20.953389
22
10.112529
32
0.0
13
20.953389
23
10.112529
33
0.0
0
SOLID
8
superluminal_spots
10
21.000000
20
10.000000
30
0.0
11
20.953389
21
10.112529
31
0.0
12
20.913874
22
10.086126
32
0.0
13
20.913874
23
10.086126
33
0.0
0
SOLID
8
superluminal_spots
10
21.000000
20
10.000000
30
0.0
11
20.913874
21
10.086126
31
0.0
12
20.887471
22
10.046611
32
0.0
13
20.887471
23
10.046611
33
0.0
0
SOLID
8
superluminal_spots
10
21.000000
20
10.000000
30
0.0
11
20.887471
21
10.046611
31
0.0
12
20.878200
22
10.000000
32
0.0
13
20.878200
23
10.000000
33
0.0
0
SOLID
8
superluminal_spots
10
21.000000
20
10.000000
30
0.0
11
20.878200
21
10.000000
31
0.0
12
20.887471
22
9.953389
32
0.0
13
20.887471
23
9.953389
33
0.0
0
SOLID
8
superluminal_spots
10
21.000000
20
10.000000
30
0.0
11
20.887471
21
9.953389
31
0.0
12
20.913874
22
9.913874
32
0.0
13
20.913874
23
9.913874
33
0.0
0
SOLID
8
superluminal_spots
10
21.000000
20
10.000000
30
0.0
11
20.913874
21
9.913874
31
0.0
12
20.953389
22
9.887471
32
0.0
13
20.953389
23
9.887471
33
0.0
0
SOLID
8
superluminal_spots
10
21.000000
20
10.000000
30
0.0
11
20.953389
21
9.887471
31
0.0
12
21.000000
22
9.878200
32
0.0
13
21.000000
23
9.878200
33
0.0
0
SOLID
8
superluminal_spots
10
21.000000
20
10.000000
30
0.0
11
21.000000
21
9.878200
31
0.0
12
21.046611
22
9.887471
32
0.0
13
21.046611
23
9.887471
33
0.0
0
SOLID
8
superluminal_spots
10
21.000000
20
10.000000
30
0.0
11
21.046611
21
9.887471
31
0.0
12
21.086126
22
9.913874
32
0.0
13
21.086126
23
9.913874
33
0.0
0
SOLID
8
superluminal_spots
10
21.000000
20
10.000000
30
0.0
11
21.086126
21
9.913874
31
0.0
12
21.112529
22
9.953389
32
0.0
13
21.112529
23
9.953389
33
0.0
0
SOLID
8
superluminal_spots
10
21.000000
20
10.000000
30
0.0
11
21.112529
21
9.953389
31
0.0
12
21.121800
22
10.000000
32
0.0
13
21.121800
23
10.000000
33
0.0
0
CIRCLE
8
superluminal_spots
10
3.0000
20
5.0000
30
0.0
40
0.2900
0
SOLID
8
superluminal_spots
10
3.000000
20
5.000000
30
0.0
11
3.121800
21
5.000000
31
0.0
12
3.112529
22
5.046611
32
0.0
13
3.112529
23
5.046611
33
0.0
0
SOLID
8
superluminal_spots
10
3.000000
20
5.000000
30
0.0
11
3.112529
21
5.046611
31
0.0
12
3.086126
22
5.086126
32
0.0
13
3.086126
23
5.086126
33
0.0
0
SOLID
8
superluminal_spots
10
3.000000
20
5.000000
30
0.0
11
3.086126
21
5.086126
31
0.0
12
3.046611
22
5.112529
32
0.0
13
3.046611
23
5.112529
33
0.0
0
SOLID
8
superluminal_spots
10
3.000000
20
5.000000
30
0.0
11
3.046611
21
5.112529
31
0.0
12
3.000000
22
5.121800
32
0.0
13
3.000000
23
5.121800
33
0.0
0
SOLID
8
superluminal_spots
10
3.000000
20
5.000000
30
0.0
11
3.000000
21
5.121800
31
0.0
12
2.953389
22
5.112529
32
0.0
13
2.953389
23
5.112529
33
0.0
0
SOLID
8
superluminal_spots
10
3.000000
20
5.000000
30
0.0
11
2.953389
21
5.112529
31
0.0
12
2.913874
22
5.086126
32
0.0
13
2.913874
23
5.086126
33
0.0
0
SOLID
8
superluminal_spots
10
3.000000
20
5.000000
30
0.0
11
2.913874
21
5.086126
31
0.0
12
2.887471
22
5.046611
32
0.0
13
2.887471
23
5.046611
33
0.0
0
SOLID
8
superluminal_spots
10
3.000000
20
5.000000
30
0.0
11
2.887471
21
5.046611
31
0.0
12
2.878200
22
5.000000
32
0.0
13
2.878200
23
5.000000
33
0.0
0
SOLID
8
superluminal_spots
10
3.000000
20
5.000000
30
0.0
11
2.878200
21
5.000000
31
0.0
12
2.887471
22
4.953389
32
0.0
13
2.887471
23
4.953389
33
0.0
0
SOLID
8
superluminal_spots
10
3.000000
20
5.000000
30
0.0
11
2.887471
21
4.953389
31
0.0
12
2.913874
22
4.913874
32
0.0
13
2.913874
23
4.913874
33
0.0
0
SOLID
8
superluminal_spots
10
3.000000
20
5.000000
30
0.0
11
2.913874
21
4.913874
31
0.0
12
2.953389
22
4.887471
32
0.0
13
2.953389
23
4.887471
33
0.0
0
SOLID
8
superluminal_spots
10
3.000000
20
5.000000
30
0.0
11
2.953389
21
4.887471
31
0.0
12
3.000000
22
4.878200
32
0.0
13
3.000000
23
4.878200
33
0.0
0
SOLID
8
superluminal_spots
10
3.000000
20
5.000000
30
0.0
11
3.000000
21
4.878200
31
0.0
12
3.046611
22
4.887471
32
0.0
13
3.046611
23
4.887471
33
0.0
0
SOLID
8
superluminal_spots
10
3.000000
20
5.000000
30
0.0
11
3.046611
21
4.887471
31
0.0
12
3.086126
22
4.913874
32
0.0
13
3.086126
23
4.913874
33
0.0
0
SOLID
8
superluminal_spots
10
3.000000
20
5.000000
30
0.0
11
3.086126
21
4.913874
31
0.0
12
3.112529
22
4.953389
32
0.0
13
3.112529
23
4.953389
33
0.0
0
SOLID
8
superluminal_spots
10
3.000000
20
5.000000
30
0.0
11
3.112529
21
4.953389
31
0.0
12
3.121800
22
5.000000
32
0.0
13
3.121800
23
5.000000
33
0.0
0
CIRCLE
8
superluminal_spots
10
9.0000
20
5.0000
30
0.0
40
0.2900
0
SOLID
8
superluminal_spots
10
9.000000
20
5.000000
30
0.0
11
9.121800
21
5.000000
31
0.0
12
9.112529
22
5.046611
32
0.0
13
9.112529
23
5.046611
33
0.0
0
SOLID
8
superluminal_spots
10
9.000000
20
5.000000
30
0.0
11
9.112529
21
5.046611
31
0.0
12
9.086126
22
5.086126
32
0.0
13
9.086126
23
5.086126
33
0.0
0
SOLID
8
superluminal_spots
10
9.000000
20
5.000000
30
0.0
11
9.086126
21
5.086126
31
0.0
12
9.046611
22
5.112529
32
0.0
13
9.046611
23
5.112529
33
0.0
0
SOLID
8
superluminal_spots
10
9.000000
20
5.000000
30
0.0
11
9.046611
21
5.112529
31
0.0
12
9.000000
22
5.121800
32
0.0
13
9.000000
23
5.121800
33
0.0
0
SOLID
8
superluminal_spots
10
9.000000
20
5.000000
30
0.0
11
9.000000
21
5.121800
31
0.0
12
8.953389
22
5.112529
32
0.0
13
8.953389
23
5.112529
33
0.0
0
SOLID
8
superluminal_spots
10
9.000000
20
5.000000
30
0.0
11
8.953389
21
5.112529
31
0.0
12
8.913874
22
5.086126
32
0.0
13
8.913874
23
5.086126
33
0.0
0
SOLID
8
superluminal_spots
10
9.000000
20
5.000000
30
0.0
11
8.913874
21
5.086126
31
0.0
12
8.887471
22
5.046611
32
0.0
13
8.887471
23
5.046611
33
0.0
0
SOLID
8
superluminal_spots
10
9.000000
20
5.000000
30
0.0
11
8.887471
21
5.046611
31
0.0
12
8.878200
22
5.000000
32
0.0
13
8.878200
23
5.000000
33
0.0
0
SOLID
8
superluminal_spots
10
9.000000
20
5.000000
30
0.0
11
8.878200
21
5.000000
31
0.0
12
8.887471
22
4.953389
32
0.0
13
8.887471
23
4.953389
33
0.0
0
SOLID
8
superluminal_spots
10
9.000000
20
5.000000
30
0.0
11
8.887471
21
4.953389
31
0.0
12
8.913874
22
4.913874
32
0.0
13
8.913874
23
4.913874
33
0.0
0
SOLID
8
superluminal_spots
10
9.000000
20
5.000000
30
0.0
11
8.913874
21
4.913874
31
0.0
12
8.953389
22
4.887471
32
0.0
13
8.953389
23
4.887471
33
0.0
0
SOLID
8
superluminal_spots
10
9.000000
20
5.000000
30
0.0
11
8.953389
21
4.887471
31
0.0
12
9.000000
22
4.878200
32
0.0
13
9.000000
23
4.878200
33
0.0
0
SOLID
8
superluminal_spots
10
9.000000
20
5.000000
30
0.0
11
9.000000
21
4.878200
31
0.0
12
9.046611
22
4.887471
32
0.0
13
9.046611
23
4.887471
33
0.0
0
SOLID
8
superluminal_spots
10
9.000000
20
5.000000
30
0.0
11
9.046611
21
4.887471
31
0.0
12
9.086126
22
4.913874
32
0.0
13
9.086126
23
4.913874
33
0.0
0
SOLID
8
superluminal_spots
10
9.000000
20
5.000000
30
0.0
11
9.086126
21
4.913874
31
0.0
12
9.112529
22
4.953389
32
0.0
13
9.112529
23
4.953389
33
0.0
0
SOLID
8
superluminal_spots
10
9.000000
20
5.000000
30
0.0
11
9.112529
21
4.953389
31
0.0
12
9.121800
22
5.000000
32
0.0
13
9.121800
23
5.000000
33
0.0
0
CIRCLE
8
superluminal_spots
10
15.0000
20
5.0000
30
0.0
40
0.2900
0
SOLID
8
superluminal_spots
10
15.000000
20
5.000000
30
0.0
11
15.121800
21
5.000000
31
0.0
12
15.112529
22
5.046611
32
0.0
13
15.112529
23
5.046611
33
0.0
0
SOLID
8
superluminal_spots
10
15.000000
20
5.000000
30
0.0
11
15.112529
21
5.046611
31
0.0
12
15.086126
22
5.086126
32
0.0
13
15.086126
23
5.086126
33
0.0
0
SOLID
8
superluminal_spots
10
15.000000
20
5.000000
30
0.0
11
15.086126
21
5.086126
31
0.0
12
15.046611
22
5.112529
32
0.0
13
15.046611
23
5.112529
33
0.0
0
SOLID
8
superluminal_spots
10
15.000000
20
5.000000
30
0.0
11
15.046611
21
5.112529
31
0.0
12
15.000000
22
5.121800
32
0.0
13
15.000000
23
5.121800
33
0.0
0
SOLID
8
superluminal_spots
10
15.000000
20
5.000000
30
0.0
11
15.000000
21
5.121800
31
0.0
12
14.953389
22
5.112529
32
0.0
13
14.953389
23
5.112529
33
0.0
0
SOLID
8
superluminal_spots
10
15.000000
20
5.000000
30
0.0
11
14.953389
21
5.112529
31
0.0
12
14.913874
22
5.086126
32
0.0
13
14.913874
23
5.086126
33
0.0
0
SOLID
8
superluminal_spots
10
15.000000
20
5.000000
30
0.0
11
14.913874
21
5.086126
31
0.0
12
14.887471
22
5.046611
32
0.0
13
14.887471
23
5.046611
33
0.0
0
SOLID
8
superluminal_spots
10
15.000000
20
5.000000
30
0.0
11
14.887471
21
5.046611
31
0.0
12
14.878200
22
5.000000
32
0.0
13
14.878200
23
5.000000
33
0.0
0
SOLID
8
superluminal_spots
10
15.000000
20
5.000000
30
0.0
11
14.878200
21
5.000000
31
0.0
12
14.887471
22
4.953389
32
0.0
13
14.887471
23
4.953389
33
0.0
0
SOLID
8
superluminal_spots
10
15.000000
20
5.000000
30
0.0
11
14.887471
21
4.953389
31
0.0
12
14.913874
22
4.913874
32
0.0
13
14.913874
23
4.913874
33
0.0
0
SOLID
8
superluminal_spots
10
15.000000
20
5.000000
30
0.0
11
14.913874
21
4.913874
31
0.0
12
14.953389
22
4.887471
32
0.0
13
14.953389
23
4.887471
33
0.0
0
SOLID
8
superluminal_spots
10
15.000000
20
5.000000
30
0.0
11
14.953389
21
4.887471
31
0.0
12
15.000000
22
4.878200
32
0.0
13
15.000000
23
4.878200
33
0.0
0
SOLID
8
superluminal_spots
10
15.000000
20
5.000000
30
0.0
11
15.000000
21
4.878200
31
0.0
12
15.046611
22
4.887471
32
0.0
13
15.046611
23
4.887471
33
0.0
0
SOLID
8
superluminal_spots
10
15.000000
20
5.000000
30
0.0
11
15.046611
21
4.887471
31
0.0
12
15.086126
22
4.913874
32
0.0
13
15.086126
23
4.913874
33
0.0
0
SOLID
8
superluminal_spots
10
15.000000
20
5.000000
30
0.0
11
15.086126
21
4.913874
31
0.0
12
15.112529
22
4.953389
32
0.0
13
15.112529
23
4.953389
33
0.0
0
SOLID
8
superluminal_spots
10
15.000000
20
5.000000
30
0.0
11
15.112529
21
4.953389
31
0.0
12
15.121800
22
5.000000
32
0.0
13
15.121800
23
5.000000
33
0.0
0
CIRCLE
8
superluminal_spots
10
21.0000
20
5.0000
30
0.0
40
0.2900
0
SOLID
8
superluminal_spots
10
21.000000
20
5.000000
30
0.0
11
21.121800
21
5.000000
31
0.0
12
21.112529
22
5.046611
32
0.0
13
21.112529
23
5.046611
33
0.0
0
SOLID
8
superluminal_spots
10
21.000000
20
5.000000
30
0.0
11
21.112529
21
5.046611
31
0.0
12
21.086126
22
5.086126
32
0.0
13
21.086126
23
5.086126
33
0.0
0
SOLID
8
superluminal_spots
10
21.000000
20
5.000000
30
0.0
11
21.086126
21
5.086126
31
0.0
12
21.046611
22
5.112529
32
0.0
13
21.046611
23
5.112529
33
0.0
0
SOLID
8
superluminal_spots
10
21.000000
20
5.000000
30
0.0
11
21.046611
21
5.112529
31
0.0
12
21.000000
22
5.121800
32
0.0
13
21.000000
23
5.121800
33
0.0
0
SOLID
8
superluminal_spots
10
21.000000
20
5.000000
30
0.0
11
21.000000
21
5.121800
31
0.0
12
20.953389
22
5.112529
32
0.0
13
20.953389
23
5.112529
33
0.0
0
SOLID
8
superluminal_spots
10
21.000000
20
5.000000
30
0.0
11
20.953389
21
5.112529
31
0.0
12
20.913874
22
5.086126
32
0.0
13
20.913874
23
5.086126
33
0.0
0
SOLID
8
superluminal_spots
10
21.000000
20
5.000000
30
0.0
11
20.913874
21
5.086126
31
0.0
12
20.887471
22
5.046611
32
0.0
13
20.887471
23
5.046611
33
0.0
0
SOLID
8
superluminal_spots
10
21.000000
20
5.000000
30
0.0
11
20.887471
21
5.046611
31
0.0
12
20.878200
22
5.000000
32
0.0
13
20.878200
23
5.000000
33
0.0
0
SOLID
8
superluminal_spots
10
21.000000
20
5.000000
30
0.0
11
20.878200
21
5.000000
31
0.0
12
20.887471
22
4.953389
32
0.0
13
20.887471
23
4.953389
33
0.0
0
SOLID
8
superluminal_spots
10
21.000000
20
5.000000
30
0.0
11
20.887471
21
4.953389
31
0.0
12
20.913874
22
4.913874
32
0.0
13
20.913874
23
4.913874
33
0.0
0
SOLID
8
superluminal_spots
10
21.000000
20
5.000000
30
0.0
11
20.913874
21
4.913874
31
0.0
12
20.953389
22
4.887471
32
0.0
13
20.953389
23
4.887471
33
0.0
0
SOLID
8
superluminal_spots
10
21.000000
20
5.000000
30
0.0
11
20.953389
21
4.887471
31
0.0
12
21.000000
22
4.878200
32
0.0
13
21.000000
23
4.878200
33
0.0
0
SOLID
8
superluminal_spots
10
21.000000
20
5.000000
30
0.0
11
21.000000
21
4.878200
31
0.0
12
21.046611
22
4.887471
32
0.0
13
21.046611
23
4.887471
33
0.0
0
SOLID
8
superluminal_spots
10
21.000000
20
5.000000
30
0.0
11
21.046611
21
4.887471
31
0.0
12
21.086126
22
4.913874
32
0.0
13
21.086126
23
4.913874
33
0.0
0
SOLID
8
superluminal_spots
10
21.000000
20
5.000000
30
0.0
11
21.086126
21
4.913874
31
0.0
12
21.112529
22
4.953389
32
0.0
13
21.112529
23
4.953389
33
0.0
0
SOLID
8
superluminal_spots
10
21.000000
20
5.000000
30
0.0
11
21.112529
21
4.953389
31
0.0
12
21.121800
22
5.000000
32
0.0
13
21.121800
23
5.000000
33
0.0
0
CIRCLE
8
superluminal_spots
10
15.0000
20
10.0000
30
0.0
40
0.5000
0
SOLID
8
superluminal_spots
10
15.000000
20
10.000000
30
0.0
11
15.210000
21
10.000000
31
0.0
12
15.194015
22
10.080364
32
0.0
13
15.194015
23
10.080364
33
0.0
0
SOLID
8
superluminal_spots
10
15.000000
20
10.000000
30
0.0
11
15.194015
21
10.080364
31
0.0
12
15.148492
22
10.148492
32
0.0
13
15.148492
23
10.148492
33
0.0
0
SOLID
8
superluminal_spots
10
15.000000
20
10.000000
30
0.0
11
15.148492
21
10.148492
31
0.0
12
15.080364
22
10.194015
32
0.0
13
15.080364
23
10.194015
33
0.0
0
SOLID
8
superluminal_spots
10
15.000000
20
10.000000
30
0.0
11
15.080364
21
10.194015
31
0.0
12
15.000000
22
10.210000
32
0.0
13
15.000000
23
10.210000
33
0.0
0
SOLID
8
superluminal_spots
10
15.000000
20
10.000000
30
0.0
11
15.000000
21
10.210000
31
0.0
12
14.919636
22
10.194015
32
0.0
13
14.919636
23
10.194015
33
0.0
0
SOLID
8
superluminal_spots
10
15.000000
20
10.000000
30
0.0
11
14.919636
21
10.194015
31
0.0
12
14.851508
22
10.148492
32
0.0
13
14.851508
23
10.148492
33
0.0
0
SOLID
8
superluminal_spots
10
15.000000
20
10.000000
30
0.0
11
14.851508
21
10.148492
31
0.0
12
14.805985
22
10.080364
32
0.0
13
14.805985
23
10.080364
33
0.0
0
SOLID
8
superluminal_spots
10
15.000000
20
10.000000
30
0.0
11
14.805985
21
10.080364
31
0.0
12
14.790000
22
10.000000
32
0.0
13
14.790000
23
10.000000
33
0.0
0
SOLID
8
superluminal_spots
10
15.000000
20
10.000000
30
0.0
11
14.790000
21
10.000000
31
0.0
12
14.805985
22
9.919636
32
0.0
13
14.805985
23
9.919636
33
0.0
0
SOLID
8
superluminal_spots
10
15.000000
20
10.000000
30
0.0
11
14.805985
21
9.919636
31
0.0
12
14.851508
22
9.851508
32
0.0
13
14.851508
23
9.851508
33
0.0
0
SOLID
8
superluminal_spots
10
15.000000
20
10.000000
30
0.0
11
14.851508
21
9.851508
31
0.0
12
14.919636
22
9.805985
32
0.0
13
14.919636
23
9.805985
33
0.0
0
SOLID
8
superluminal_spots
10
15.000000
20
10.000000
30
0.0
11
14.919636
21
9.805985
31
0.0
12
15.000000
22
9.790000
32
0.0
13
15.000000
23
9.790000
33
0.0
0
SOLID
8
superluminal_spots
10
15.000000
20
10.000000
30
0.0
11
15.000000
21
9.790000
31
0.0
12
15.080364
22
9.805985
32
0.0
13
15.080364
23
9.805985
33
0.0
0
SOLID
8
superluminal_spots
10
15.000000
20
10.000000
30
0.0
11
15.080364
21
9.805985
31
0.0
12
15.148492
22
9.851508
32
0.0
13
15.148492
23
9.851508
33
0.0
0
SOLID
8
superluminal_spots
10
15.000000
20
10.000000
30
0.0
11
15.148492
21
9.851508
31
0.0
12
15.194015
22
9.919636
32
0.0
13
15.194015
23
9.919636
33
0.0
0
SOLID
8
superluminal_spots
10
15.000000
20
10.000000
30
0.0
11
15.194015
21
9.919636
31
0.0
12
15.210000
22
10.000000
32
0.0
13
15.210000
23
10.000000
33
0.0
0
LINE
8
superluminal_spots
10
14.1500
20
10.0000
30
0.0
11
15.8500
21
10.0000
31
0.0
0
CIRCLE
8
superluminal_spots
10
21.0000
20
5.0000
30
0.0
40
0.5000
0
SOLID
8
superluminal_spots
10
21.000000
20
5.000000
30
0.0
11
21.210000
21
5.000000
31
0.0
12
21.194015
22
5.080364
32
0.0
13
21.194015
23
5.080364
33
0.0
0
SOLID
8
superluminal_spots
10
21.000000
20
5.000000
30
0.0
11
21.194015
21
5.080364
31
0.0
12
21.148492
22
5.148492
32
0.0
13
21.148492
23
5.148492
33
0.0
0
SOLID
8
superluminal_spots
10
21.000000
20
5.000000
30
0.0
11
21.148492
21
5.148492
31
0.0
12
21.080364
22
5.194015
32
0.0
13
21.080364
23
5.194015
33
0.0
0
SOLID
8
superluminal_spots
10
21.000000
20
5.000000
30
0.0
11
21.080364
21
5.194015
31
0.0
12
21.000000
22
5.210000
32
0.0
13
21.000000
23
5.210000
33
0.0
0
SOLID
8
superluminal_spots
10
21.000000
20
5.000000
30
0.0
11
21.000000
21
5.210000
31
0.0
12
20.919636
22
5.194015
32
0.0
13
20.919636
23
5.194015
33
0.0
0
SOLID
8
superluminal_spots
10
21.000000
20
5.000000
30
0.0
11
20.919636
21
5.194015
31
0.0
12
20.851508
22
5.148492
32
0.0
13
20.851508
23
5.148492
33
0.0
0
SOLID
8
superluminal_spots
10
21.000000
20
5.000000
30
0.0
11
20.851508
21
5.148492
31
0.0
12
20.805985
22
5.080364
32
0.0
13
20.805985
23
5.080364
33
0.0
0
SOLID
8
superluminal_spots
10
21.000000
20
5.000000
30
0.0
11
20.805985
21
5.080364
31
0.0
12
20.790000
22
5.000000
32
0.0
13
20.790000
23
5.000000
33
0.0
0
SOLID
8
superluminal_spots
10
21.000000
20
5.000000
30
0.0
11
20.790000
21
5.000000
31
0.0
12
20.805985
22
4.919636
32
0.0
13
20.805985
23
4.919636
33
0.0
0
SOLID
8
superluminal_spots
10
21.000000
20
5.000000
30
0.0
11
20.805985
21
4.919636
31
0.0
12
20.851508
22
4.851508
32
0.0
13
20.851508
23
4.851508
33
0.0
0
SOLID
8
superluminal_spots
10
21.000000
20
5.000000
30
0.0
11
20.851508
21
4.851508
31
0.0
12
20.919636
22
4.805985
32
0.0
13
20.919636
23
4.805985
33
0.0
0
SOLID
8
superluminal_spots
10
21.000000
20
5.000000
30
0.0
11
20.919636
21
4.805985
31
0.0
12
21.000000
22
4.790000
32
0.0
13
21.000000
23
4.790000
33
0.0
0
SOLID
8
superluminal_spots
10
21.000000
20
5.000000
30
0.0
11
21.000000
21
4.790000
31
0.0
12
21.080364
22
4.805985
32
0.0
13
21.080364
23
4.805985
33
0.0
0
SOLID
8
superluminal_spots
10
21.000000
20
5.000000
30
0.0
11
21.080364
21
4.805985
31
0.0
12
21.148492
22
4.851508
32
0.0
13
21.148492
23
4.851508
33
0.0
0
SOLID
8
superluminal_spots
10
21.000000
20
5.000000
30
0.0
11
21.148492
21
4.851508
31
0.0
12
21.194015
22
4.919636
32
0.0
13
21.194015
23
4.919636
33
0.0
0
SOLID
8
superluminal_spots
10
21.000000
20
5.000000
30
0.0
11
21.194015
21
4.919636
31
0.0
12
21.210000
22
5.000000
32
0.0
13
21.210000
23
5.000000
33
0.0
0
LINE
8
superluminal_spots
10
21.0000
20
4.1500
30
0.0
11
21.0000
21
5.8500
31
0.0
0
CIRCLE
8
superluminal_spots
10
9.0000
20
5.0000
30
0.0
40
0.2320
0
SOLID
8
superluminal_spots
10
9.000000
20
5.000000
30
0.0
11
9.097440
21
5.000000
31
0.0
12
9.090023
22
5.037289
32
0.0
13
9.090023
23
5.037289
33
0.0
0
SOLID
8
superluminal_spots
10
9.000000
20
5.000000
30
0.0
11
9.090023
21
5.037289
31
0.0
12
9.068900
22
5.068900
32
0.0
13
9.068900
23
5.068900
33
0.0
0
SOLID
8
superluminal_spots
10
9.000000
20
5.000000
30
0.0
11
9.068900
21
5.068900
31
0.0
12
9.037289
22
5.090023
32
0.0
13
9.037289
23
5.090023
33
0.0
0
SOLID
8
superluminal_spots
10
9.000000
20
5.000000
30
0.0
11
9.037289
21
5.090023
31
0.0
12
9.000000
22
5.097440
32
0.0
13
9.000000
23
5.097440
33
0.0
0
SOLID
8
superluminal_spots
10
9.000000
20
5.000000
30
0.0
11
9.000000
21
5.097440
31
0.0
12
8.962711
22
5.090023
32
0.0
13
8.962711
23
5.090023
33
0.0
0
SOLID
8
superluminal_spots
10
9.000000
20
5.000000
30
0.0
11
8.962711
21
5.090023
31
0.0
12
8.931100
22
5.068900
32
0.0
13
8.931100
23
5.068900
33
0.0
0
SOLID
8
superluminal_spots
10
9.000000
20
5.000000
30
0.0
11
8.931100
21
5.068900
31
0.0
12
8.909977
22
5.037289
32
0.0
13
8.909977
23
5.037289
33
0.0
0
SOLID
8
superluminal_spots
10
9.000000
20
5.000000
30
0.0
11
8.909977
21
5.037289
31
0.0
12
8.902560
22
5.000000
32
0.0
13
8.902560
23
5.000000
33
0.0
0
SOLID
8
superluminal_spots
10
9.000000
20
5.000000
30
0.0
11
8.902560
21
5.000000
31
0.0
12
8.909977
22
4.962711
32
0.0
13
8.909977
23
4.962711
33
0.0
0
SOLID
8
superluminal_spots
10
9.000000
20
5.000000
30
0.0
11
8.909977
21
4.962711
31
0.0
12
8.931100
22
4.931100
32
0.0
13
8.931100
23
4.931100
33
0.0
0
SOLID
8
superluminal_spots
10
9.000000
20
5.000000
30
0.0
11
8.931100
21
4.931100
31
0.0
12
8.962711
22
4.909977
32
0.0
13
8.962711
23
4.909977
33
0.0
0
SOLID
8
superluminal_spots
10
9.000000
20
5.000000
30
0.0
11
8.962711
21
4.909977
31
0.0
12
9.000000
22
4.902560
32
0.0
13
9.000000
23
4.902560
33
0.0
0
SOLID
8
superluminal_spots
10
9.000000
20
5.000000
30
0.0
11
9.000000
21
4.902560
31
0.0
12
9.037289
22
4.909977
32
0.0
13
9.037289
23
4.909977
33
0.0
0
SOLID
8
superluminal_spots
10
9.000000
20
5.000000
30
0.0
11
9.037289
21
4.909977
31
0.0
12
9.068900
22
4.931100
32
0.0
13
9.068900
23
4.931100
33
0.0
0
SOLID
8
superluminal_spots
10
9.000000
20
5.000000
30
0.0
11
9.068900
21
4.931100
31
0.0
12
9.090023
22
4.962711
32
0.0
13
9.090023
23
4.962711
33
0.0
0
SOLID
8
superluminal_spots
10
9.000000
20
5.000000
30
0.0
11
9.090023
21
4.962711
31
0.0
12
9.097440
22
5.000000
32
0.0
13
9.097440
23
5.000000
33
0.0
0
CIRCLE
8
superluminal_spots
10
30.0000
20
14.0000
30
0.0
40
0.2900
0
SOLID
8
superluminal_spots
10
30.000000
20
14.000000
30
0.0
11
30.121800
21
14.000000
31
0.0
12
30.112529
22
14.046611
32
0.0
13
30.112529
23
14.046611
33
0.0
0
SOLID
8
superluminal_spots
10
30.000000
20
14.000000
30
0.0
11
30.112529
21
14.046611
31
0.0
12
30.086126
22
14.086126
32
0.0
13
30.086126
23
14.086126
33
0.0
0
SOLID
8
superluminal_spots
10
30.000000
20
14.000000
30
0.0
11
30.086126
21
14.086126
31
0.0
12
30.046611
22
14.112529
32
0.0
13
30.046611
23
14.112529
33
0.0
0
SOLID
8
superluminal_spots
10
30.000000
20
14.000000
30
0.0
11
30.046611
21
14.112529
31
0.0
12
30.000000
22
14.121800
32
0.0
13
30.000000
23
14.121800
33
0.0
0
SOLID
8
superluminal_spots
10
30.000000
20
14.000000
30
0.0
11
30.000000
21
14.121800
31
0.0
12
29.953389
22
14.112529
32
0.0
13
29.953389
23
14.112529
33
0.0
0
SOLID
8
superluminal_spots
10
30.000000
20
14.000000
30
0.0
11
29.953389
21
14.112529
31
0.0
12
29.913874
22
14.086126
32
0.0
13
29.913874
23
14.086126
33
0.0
0
SOLID
8
superluminal_spots
10
30.000000
20
14.000000
30
0.0
11
29.913874
21
14.086126
31
0.0
12
29.887471
22
14.046611
32
0.0
13
29.887471
23
14.046611
33
0.0
0
SOLID
8
superluminal_spots
10
30.000000
20
14.000000
30
0.0
11
29.887471
21
14.046611
31
0.0
12
29.878200
22
14.000000
32
0.0
13
29.878200
23
14.000000
33
0.0
0
SOLID
8
superluminal_spots
10
30.000000
20
14.000000
30
0.0
11
29.878200
21
14.000000
31
0.0
12
29.887471
22
13.953389
32
0.0
13
29.887471
23
13.953389
33
0.0
0
SOLID
8
superluminal_spots
10
30.000000
20
14.000000
30
0.0
11
29.887471
21
13.953389
31
0.0
12
29.913874
22
13.913874
32
0.0
13
29.913874
23
13.913874
33
0.0
0
SOLID
8
superluminal_spots
10
30.000000
20
14.000000
30
0.0
11
29.913874
21
13.913874
31
0.0
12
29.953389
22
13.887471
32
0.0
13
29.953389
23
13.887471
33
0.0
0
SOLID
8
superluminal_spots
10
30.000000
20
14.000000
30
0.0
11
29.953389
21
13.887471
31
0.0
12
30.000000
22
13.878200
32
0.0
13
30.000000
23
13.878200
33
0.0
0
SOLID
8
superluminal_spots
10
30.000000
20
14.000000
30
0.0
11
30.000000
21
13.878200
31
0.0
12
30.046611
22
13.887471
32
0.0
13
30.046611
23
13.887471
33
0.0
0
SOLID
8
superluminal_spots
10
30.000000
20
14.000000
30
0.0
11
30.046611
21
13.887471
31
0.0
12
30.086126
22
13.913874
32
0.0
13
30.086126
23
13.913874
33
0.0
0
SOLID
8
superluminal_spots
10
30.000000
20
14.000000
30
0.0
11
30.086126
21
13.913874
31
0.0
12
30.112529
22
13.953389
32
0.0
13
30.112529
23
13.953389
33
0.0
0
SOLID
8
superluminal_spots
10
30.000000
20
14.000000
30
0.0
11
30.112529
21
13.953389
31
0.0
12
30.121800
22
14.000000
32
0.0
13
30.121800
23
14.000000
33
0.0
0
CIRCLE
8
superluminal_spots
10
34.0000
20
14.0000
30
0.0
40
0.2900
0
SOLID
8
superluminal_spots
10
34.000000
20
14.000000
30
0.0
11
34.121800
21
14.000000
31
0.0
12
34.112529
22
14.046611
32
0.0
13
34.112529
23
14.046611
33
0.0
0
SOLID
8
superluminal_spots
10
34.000000
20
14.000000
30
0.0
11
34.112529
21
14.046611
31
0.0
12
34.086126
22
14.086126
32
0.0
13
34.086126
23
14.086126
33
0.0
0
SOLID
8
superluminal_spots
10
34.000000
20
14.000000
30
0.0
11
34.086126
21
14.086126
31
0.0
12
34.046611
22
14.112529
32
0.0
13
34.046611
23
14.112529
33
0.0
0
SOLID
8
superluminal_spots
10
34.000000
20
14.000000
30
0.0
11
34.046611
21
14.112529
31
0.0
12
34.000000
22
14.121800
32
0.0
13
34.000000
23
14.121800
33
0.0
0
SOLID
8
superluminal_spots
10
34.000000
20
14.000000
30
0.0
11
34.000000
21
14.121800
31
0.0
12
33.953389
22
14.112529
32
0.0
13
33.953389
23
14.112529
33
0.0
0
SOLID
8
superluminal_spots
10
34.000000
20
14.000000
30
0.0
11
33.953389
21
14.112529
31
0.0
12
33.913874
22
14.086126
32
0.0
13
33.913874
23
14.086126
33
0.0
0
SOLID
8
superluminal_spots
10
34.000000
20
14.000000
30
0.0
11
33.913874
21
14.086126
31
0.0
12
33.887471
22
14.046611
32
0.0
13
33.887471
23
14.046611
33
0.0
0
SOLID
8
superluminal_spots
10
34.000000
20
14.000000
30
0.0
11
33.887471
21
14.046611
31
0.0
12
33.878200
22
14.000000
32
0.0
13
33.878200
23
14.000000
33
0.0
0
SOLID
8
superluminal_spots
10
34.000000
20
14.000000
30
0.0
11
33.878200
21
14.000000
31
0.0
12
33.887471
22
13.953389
32
0.0
13
33.887471
23
13.953389
33
0.0
0
SOLID
8
superluminal_spots
10
34.000000
20
14.000000
30
0.0
11
33.887471
21
13.953389
31
0.0
12
33.913874
22
13.913874
32
0.0
13
33.913874
23
13.913874
33
0.0
0
SOLID
8
superluminal_spots
10
34.000000
20
14.000000
30
0.0
11
33.913874
21
13.913874
31
0.0
12
33.953389
22
13.887471
32
0.0
13
33.953389
23
13.887471
33
0.0
0
SOLID
8
superluminal_spots
10
34.000000
20
14.000000
30
0.0
11
33.953389
21
13.887471
31
0.0
12
34.000000
22
13.878200
32
0.0
13
34.000000
23
13.878200
33
0.0
0
SOLID
8
superluminal_spots
10
34.000000
20
14.000000
30
0.0
11
34.000000
21
13.878200
31
0.0
12
34.046611
22
13.887471
32
0.0
13
34.046611
23
13.887471
33
0.0
0
SOLID
8
superluminal_spots
10
34.000000
20
14.000000
30
0.0
11
34.046611
21
13.887471
31
0.0
12
34.086126
22
13.913874
32
0.0
13
34.086126
23
13.913874
33
0.0
0
SOLID
8
superluminal_spots
10
34.000000
20
14.000000
30
0.0
11
34.086126
21
13.913874
31
0.0
12
34.112529
22
13.953389
32
0.0
13
34.112529
23
13.953389
33
0.0
0
SOLID
8
superluminal_spots
10
34.000000
20
14.000000
30
0.0
11
34.112529
21
13.953389
31
0.0
12
34.121800
22
14.000000
32
0.0
13
34.121800
23
14.000000
33
0.0
0
CIRCLE
8
superluminal_spots
10
30.0000
20
10.5000
30
0.0
40
0.2900
0
SOLID
8
superluminal_spots
10
30.000000
20
10.500000
30
0.0
11
30.121800
21
10.500000
31
0.0
12
30.112529
22
10.546611
32
0.0
13
30.112529
23
10.546611
33
0.0
0
SOLID
8
superluminal_spots
10
30.000000
20
10.500000
30
0.0
11
30.112529
21
10.546611
31
0.0
12
30.086126
22
10.586126
32
0.0
13
30.086126
23
10.586126
33
0.0
0
SOLID
8
superluminal_spots
10
30.000000
20
10.500000
30
0.0
11
30.086126
21
10.586126
31
0.0
12
30.046611
22
10.612529
32
0.0
13
30.046611
23
10.612529
33
0.0
0
SOLID
8
superluminal_spots
10
30.000000
20
10.500000
30
0.0
11
30.046611
21
10.612529
31
0.0
12
30.000000
22
10.621800
32
0.0
13
30.000000
23
10.621800
33
0.0
0
SOLID
8
superluminal_spots
10
30.000000
20
10.500000
30
0.0
11
30.000000
21
10.621800
31
0.0
12
29.953389
22
10.612529
32
0.0
13
29.953389
23
10.612529
33
0.0
0
SOLID
8
superluminal_spots
10
30.000000
20
10.500000
30
0.0
11
29.953389
21
10.612529
31
0.0
12
29.913874
22
10.586126
32
0.0
13
29.913874
23
10.586126
33
0.0
0
SOLID
8
superluminal_spots
10
30.000000
20
10.500000
30
0.0
11
29.913874
21
10.586126
31
0.0
12
29.887471
22
10.546611
32
0.0
13
29.887471
23
10.546611
33
0.0
0
SOLID
8
superluminal_spots
10
30.000000
20
10.500000
30
0.0
11
29.887471
21
10.546611
31
0.0
12
29.878200
22
10.500000
32
0.0
13
29.878200
23
10.500000
33
0.0
0
SOLID
8
superluminal_spots
10
30.000000
20
10.500000
30
0.0
11
29.878200
21
10.500000
31
0.0
12
29.887471
22
10.453389
32
0.0
13
29.887471
23
10.453389
33
0.0
0
SOLID
8
superluminal_spots
10
30.000000
20
10.500000
30
0.0
11
29.887471
21
10.453389
31
0.0
12
29.913874
22
10.413874
32
0.0
13
29.913874
23
10.413874
33
0.0
0
SOLID
8
superluminal_spots
10
30.000000
20
10.500000
30
0.0
11
29.913874
21
10.413874
31
0.0
12
29.953389
22
10.387471
32
0.0
13
29.953389
23
10.387471
33
0.0
0
SOLID
8
superluminal_spots
10
30.000000
20
10.500000
30
0.0
11
29.953389
21
10.387471
31
0.0
12
30.000000
22
10.378200
32
0.0
13
30.000000
23
10.378200
33
0.0
0
SOLID
8
superluminal_spots
10
30.000000
20
10.500000
30
0.0
11
30.000000
21
10.378200
31
0.0
12
30.046611
22
10.387471
32
0.0
13
30.046611
23
10.387471
33
0.0
0
SOLID
8
superluminal_spots
10
30.000000
20
10.500000
30
0.0
11
30.046611
21
10.387471
31
0.0
12
30.086126
22
10.413874
32
0.0
13
30.086126
23
10.413874
33
0.0
0
SOLID
8
superluminal_spots
10
30.000000
20
10.500000
30
0.0
11
30.086126
21
10.413874
31
0.0
12
30.112529
22
10.453389
32
0.0
13
30.112529
23
10.453389
33
0.0
0
SOLID
8
superluminal_spots
10
30.000000
20
10.500000
30
0.0
11
30.112529
21
10.453389
31
0.0
12
30.121800
22
10.500000
32
0.0
13
30.121800
23
10.500000
33
0.0
0
CIRCLE
8
superluminal_spots
10
34.0000
20
10.5000
30
0.0
40
0.2900
0
SOLID
8
superluminal_spots
10
34.000000
20
10.500000
30
0.0
11
34.121800
21
10.500000
31
0.0
12
34.112529
22
10.546611
32
0.0
13
34.112529
23
10.546611
33
0.0
0
SOLID
8
superluminal_spots
10
34.000000
20
10.500000
30
0.0
11
34.112529
21
10.546611
31
0.0
12
34.086126
22
10.586126
32
0.0
13
34.086126
23
10.586126
33
0.0
0
SOLID
8
superluminal_spots
10
34.000000
20
10.500000
30
0.0
11
34.086126
21
10.586126
31
0.0
12
34.046611
22
10.612529
32
0.0
13
34.046611
23
10.612529
33
0.0
0
SOLID
8
superluminal_spots
10
34.000000
20
10.500000
30
0.0
11
34.046611
21
10.612529
31
0.0
12
34.000000
22
10.621800
32
0.0
13
34.000000
23
10.621800
33
0.0
0
SOLID
8
superluminal_spots
10
34.000000
20
10.500000
30
0.0
11
34.000000
21
10.621800
31
0.0
12
33.953389
22
10.612529
32
0.0
13
33.953389
23
10.612529
33
0.0
0
SOLID
8
superluminal_spots
10
34.000000
20
10.500000
30
0.0
11
33.953389
21
10.612529
31
0.0
12
33.913874
22
10.586126
32
0.0
13
33.913874
23
10.586126
33
0.0
0
SOLID
8
superluminal_spots
10
34.000000
20
10.500000
30
0.0
11
33.913874
21
10.586126
31
0.0
12
33.887471
22
10.546611
32
0.0
13
33.887471
23
10.546611
33
0.0
0
SOLID
8
superluminal_spots
10
34.000000
20
10.500000
30
0.0
11
33.887471
21
10.546611
31
0.0
12
33.878200
22
10.500000
32
0.0
13
33.878200
23
10.500000
33
0.0
0
SOLID
8
superluminal_spots
10
34.000000
20
10.500000
30
0.0
11
33.878200
21
10.500000
31
0.0
12
33.887471
22
10.453389
32
0.0
13
33.887471
23
10.453389
33
0.0
0
SOLID
8
superluminal_spots
10
34.000000
20
10.500000
30
0.0
11
33.887471
21
10.453389
31
0.0
12
33.913874
22
10.413874
32
0.0
13
33.913874
23
10.413874
33
0.0
0
SOLID
8
superluminal_spots
10
34.000000
20
10.500000
30
0.0
11
33.913874
21
10.413874
31
0.0
12
33.953389
22
10.387471
32
0.0
13
33.953389
23
10.387471
33
0.0
0
SOLID
8
superluminal_spots
10
34.000000
20
10.500000
30
0.0
11
33.953389
21
10.387471
31
0.0
12
34.000000
22
10.378200
32
0.0
13
34.000000
23
10.378200
33
0.0
0
SOLID
8
superluminal_spots
10
34.000000
20
10.500000
30
0.0
11
34.000000
21
10.378200
31
0.0
12
34.046611
22
10.387471
32
0.0
13
34.046611
23
10.387471
33
0.0
0
SOLID
8
superluminal_spots
10
34.000000
20
10.500000
30
0.0
11
34.046611
21
10.387471
31
0.0
12
34.086126
22
10.413874
32
0.0
13
34.086126
23
10.413874
33
0.0
0
SOLID
8
superluminal_spots
10
34.000000
20
10.500000
30
0.0
11
34.086126
21
10.413874
31
0.0
12
34.112529
22
10.453389
32
0.0
13
34.112529
23
10.453389
33
0.0
0
SOLID
8
superluminal_spots
10
34.000000
20
10.500000
30
0.0
11
34.112529
21
10.453389
31
0.0
12
34.121800
22
10.500000
32
0.0
13
34.121800
23
10.500000
33
0.0
0
POLYLINE
8
superluminal_led_strips
66
1
70
1
10
0.0
20
0.0
30
0.0
0
VERTEX
8
superluminal_led_strips
10
2.500000
20
15.500000
30
0.0
0
VERTEX
8
superluminal_led_strips
10
23.500000
20
15.500000
30
0.0
0
VERTEX
8
superluminal_led_strips
10
23.500000
20
2.500000
30
0.0
0
VERTEX
8
superluminal_led_strips
10
2.500000
20
2.500000
30
0.0
0
SEQEND
8
superluminal_led_strips
0
SOLID
8
superluminal_reverse_coves
10
27.500000
20
16.600000
30
0.0
11
36.500000
21
16.600000
31
0.0
12
27.500000
22
15.930000
32
0.0
13
36.500000
23
15.930000
33
0.0
0
POLYLINE
8
superluminal_reverse_coves
66
1
70
1
10
0.0
20
0.0
30
0.0
0
VERTEX
8
superluminal_reverse_coves
10
27.500000
20
16.600000
30
0.0
0
VERTEX
8
superluminal_reverse_coves
10
36.500000
20
16.600000
30
0.0
0
VERTEX
8
superluminal_reverse_coves
10
36.500000
20
15.930000
30
0.0
0
VERTEX
8
superluminal_reverse_coves
10
27.500000
20
15.930000
30
0.0
0
SEQEND
8
superluminal_reverse_coves
0
POLYLINE
8
superluminal_led_strips
66
1
70
0
10
0.0
20
0.0
30
0.0
0
VERTEX
8
superluminal_led_strips
10
28.000000
20
9.000000
30
0.0
0
VERTEX
8
superluminal_led_strips
10
36.000000
20
9.000000
30
0.0
0
SEQEND
8
superluminal_led_strips
0
CIRCLE
8
superluminal_decorative
10
1.0000
20
9.0000
30
0.0
40
0.3000
0
SOLID
8
superluminal_decorative
10
1.000000
20
9.000000
30
0.0
11
1.126000
21
9.000000
31
0.0
12
1.116409
22
9.048218
32
0.0
13
1.116409
23
9.048218
33
0.0
0
SOLID
8
superluminal_decorative
10
1.000000
20
9.000000
30
0.0
11
1.116409
21
9.048218
31
0.0
12
1.089095
22
9.089095
32
0.0
13
1.089095
23
9.089095
33
0.0
0
SOLID
8
superluminal_decorative
10
1.000000
20
9.000000
30
0.0
11
1.089095
21
9.089095
31
0.0
12
1.048218
22
9.116409
32
0.0
13
1.048218
23
9.116409
33
0.0
0
SOLID
8
superluminal_decorative
10
1.000000
20
9.000000
30
0.0
11
1.048218
21
9.116409
31
0.0
12
1.000000
22
9.126000
32
0.0
13
1.000000
23
9.126000
33
0.0
0
SOLID
8
superluminal_decorative
10
1.000000
20
9.000000
30
0.0
11
1.000000
21
9.126000
31
0.0
12
0.951782
22
9.116409
32
0.0
13
0.951782
23
9.116409
33
0.0
0
SOLID
8
superluminal_decorative
10
1.000000
20
9.000000
30
0.0
11
0.951782
21
9.116409
31
0.0
12
0.910905
22
9.089095
32
0.0
13
0.910905
23
9.089095
33
0.0
0
SOLID
8
superluminal_decorative
10
1.000000
20
9.000000
30
0.0
11
0.910905
21
9.089095
31
0.0
12
0.883591
22
9.048218
32
0.0
13
0.883591
23
9.048218
33
0.0
0
SOLID
8
superluminal_decorative
10
1.000000
20
9.000000
30
0.0
11
0.883591
21
9.048218
31
0.0
12
0.874000
22
9.000000
32
0.0
13
0.874000
23
9.000000
33
0.0
0
SOLID
8
superluminal_decorative
10
1.000000
20
9.000000
30
0.0
11
0.874000
21
9.000000
31
0.0
12
0.883591
22
8.951782
32
0.0
13
0.883591
23
8.951782
33
0.0
0
SOLID
8
superluminal_decorative
10
1.000000
20
9.000000
30
0.0
11
0.883591
21
8.951782
31
0.0
12
0.910905
22
8.910905
32
0.0
13
0.910905
23
8.910905
33
0.0
0
SOLID
8
superluminal_decorative
10
1.000000
20
9.000000
30
0.0
11
0.910905
21
8.910905
31
0.0
12
0.951782
22
8.883591
32
0.0
13
0.951782
23
8.883591
33
0.0
0
SOLID
8
superluminal_decorative
10
1.000000
20
9.000000
30
0.0
11
0.951782
21
8.883591
31
0.0
12
1.000000
22
8.874000
32
0.0
13
1.000000
23
8.874000
33
0.0
0
SOLID
8
superluminal_decorative
10
1.000000
20
9.000000
30
0.0
11
1.000000
21
8.874000
31
0.0
12
1.048218
22
8.883591
32
0.0
13
1.048218
23
8.883591
33
0.0
0
SOLID
8
superluminal_decorative
10
1.000000
20
9.000000
30
0.0
11
1.048218
21
8.883591
31
0.0
12
1.089095
22
8.910905
32
0.0
13
1.089095
23
8.910905
33
0.0
0
SOLID
8
superluminal_decorative
10
1.000000
20
9.000000
30
0.0
11
1.089095
21
8.910905
31
0.0
12
1.116409
22
8.951782
32
0.0
13
1.116409
23
8.951782
33
0.0
0
SOLID
8
superluminal_decorative
10
1.000000
20
9.000000
30
0.0
11
1.116409
21
8.951782
31
0.0
12
1.126000
22
9.000000
32
0.0
13
1.126000
23
9.000000
33
0.0
0
CIRCLE
8
superluminal_spots
10
5.0000
20
3.0000
30
0.0
40
0.3000
0
SOLID
8
superluminal_spots
10
5.000000
20
3.000000
30
0.0
11
5.126000
21
3.000000
31
0.0
12
5.116409
22
3.048218
32
0.0
13
5.116409
23
3.048218
33
0.0
0
SOLID
8
superluminal_spots
10
5.000000
20
3.000000
30
0.0
11
5.116409
21
3.048218
31
0.0
12
5.089095
22
3.089095
32
0.0
13
5.089095
23
3.089095
33
0.0
0
SOLID
8
superluminal_spots
10
5.000000
20
3.000000
30
0.0
11
5.089095
21
3.089095
31
0.0
12
5.048218
22
3.116409
32
0.0
13
5.048218
23
3.116409
33
0.0
0
SOLID
8
superluminal_spots
10
5.000000
20
3.000000
30
0.0
11
5.048218
21
3.116409
31
0.0
12
5.000000
22
3.126000
32
0.0
13
5.000000
23
3.126000
33
0.0
0
SOLID
8
superluminal_spots
10
5.000000
20
3.000000
30
0.0
11
5.000000
21
3.126000
31
0.0
12
4.951782
22
3.116409
32
0.0
13
4.951782
23
3.116409
33
0.0
0
SOLID
8
superluminal_spots
10
5.000000
20
3.000000
30
0.0
11
4.951782
21
3.116409
31
0.0
12
4.910905
22
3.089095
32
0.0
13
4.910905
23
3.089095
33
0.0
0
SOLID
8
superluminal_spots
10
5.000000
20
3.000000
30
0.0
11
4.910905
21
3.089095
31
0.0
12
4.883591
22
3.048218
32
0.0
13
4.883591
23
3.048218
33
0.0
0
SOLID
8
superluminal_spots
10
5.000000
20
3.000000
30
0.0
11
4.883591
21
3.048218
31
0.0
12
4.874000
22
3.000000
32
0.0
13
4.874000
23
3.000000
33
0.0
0
SOLID
8
superluminal_spots
10
5.000000
20
3.000000
30
0.0
11
4.874000
21
3.000000
31
0.0
12
4.883591
22
2.951782
32
0.0
13
4.883591
23
2.951782
33
0.0
0
SOLID
8
superluminal_spots
10
5.000000
20
3.000000
30
0.0
11
4.883591
21
2.951782
31
0.0
12
4.910905
22
2.910905
32
0.0
13
4.910905
23
2.910905
33
0.0
0
SOLID
8
superluminal_spots
10
5.000000
20
3.000000
30
0.0
11
4.910905
21
2.910905
31
0.0
12
4.951782
22
2.883591
32
0.0
13
4.951782
23
2.883591
33
0.0
0
SOLID
8
superluminal_spots
10
5.000000
20
3.000000
30
0.0
11
4.951782
21
2.883591
31
0.0
12
5.000000
22
2.874000
32
0.0
13
5.000000
23
2.874000
33
0.0
0
SOLID
8
superluminal_spots
10
5.000000
20
3.000000
30
0.0
11
5.000000
21
2.874000
31
0.0
12
5.048218
22
2.883591
32
0.0
13
5.048218
23
2.883591
33
0.0
0
SOLID
8
superluminal_spots
10
5.000000
20
3.000000
30
0.0
11
5.048218
21
2.883591
31
0.0
12
5.089095
22
2.910905
32
0.0
13
5.089095
23
2.910905
33
0.0
0
SOLID
8
superluminal_spots
10
5.000000
20
3.000000
30
0.0
11
5.089095
21
2.910905
31
0.0
12
5.116409
22
2.951782
32
0.0
13
5.116409
23
2.951782
33
0.0
0
SOLID
8
superluminal_spots
10
5.000000
20
3.000000
30
0.0
11
5.116409
21
2.951782
31
0.0
12
5.126000
22
3.000000
32
0.0
13
5.126000
23
3.000000
33
0.0
0
LINE
8
superluminal_spots
10
4.5800
20
3.0000
30
0.0
11
3.8000
21
3.0000
31
0.0
0
ENDSEC
0
EOF