0
SECTION
2
HEADER
9
$INSUNITS
70
4
9
$ACADVER
1
AC1015
0
ENDSEC
0
SECTION
2
TABLES
0
TABLE
2
LAYER
70
5
0
LAYER
2
A-WALL
70
0
62
7
6
CONTINUOUS
0
LAYER
2
A-TEXT
70
0
62
7
6
CONTINUOUS
0
LAYER
2
A-DOOR
70
0
62
7
6
CONTINUOUS
0
LAYER
2
A-DIMS
70
0
62
7
6
CONTINUOUS
0
LAYER
2
A-FURN
70
0
62
7
6
CONTINUOUS
0
ENDTAB
0
ENDSEC
0
SECTION
2
BLOCKS
0
ENDSEC
0
SECTION
2
ENTITIES
0
LINE
8
A-WALL
10
0
20
114.30000000000001
30
0
11
12801.6
21
114.30000000000001
31
0
0
LINE
8
A-WALL
10
0
20
-114.30000000000001
30
0
11
12801.6
21
-114.30000000000001
31
0
0
LINE
8
A-WALL
10
12687.300000000001
20
0
30
0
11
12687.300000000001
21
9144
31
0
0
LINE
8
A-WALL
10
12915.9
20
0
30
0
11
12915.9
21
9144
31
0
0
LINE
8
A-WALL
10
12801.6
20
9029.7
30
0
11
0
21
9029.7
31
0
0
LINE
8
A-WALL
10
12801.6
20
9258.300000000001
30
0
11
0
21
9258.300000000001
31
0
0
LINE
8
A-WALL
10
114.30000000000001
20
9144
30
0
11
114.30000000000001
21
2971.8
31
0
0
LINE
8
A-WALL
10
114.30000000000001
20
1905
30
0
11
114.30000000000001
21
0
31
0
0
LINE
8
A-WALL
10
-114.30000000000001
20
9144
30
0
11
-114.30000000000001
21
2971.8
31
0
0
LINE
8
A-WALL
10
-114.30000000000001
20
1905
30
0
11
-114.30000000000001
21
0
31
0
0
LINE
8
A-WALL
10
5981.7
20
0
30
0
11
5981.7
21
1981.2
31
0
0
LINE
8
A-WALL
10
5981.7
20
2895.6
30
0
11
5981.7
21
5943.6
31
0
0
LINE
8
A-WALL
10
5981.7
20
6858
30
0
11
5981.7
21
9144
31
0
0
LINE
8
A-WALL
10
6210.3
20
0
30
0
11
6210.3
21
1981.2
31
0
0
LINE
8
A-WALL
10
6210.3
20
2895.6
30
0
11
6210.3
21
5943.6
31
0
0
LINE
8
A-WALL
10
6210.3
20
6858
30
0
11
6210.3
21
9144
31
0
0
LINE
8
A-WALL
10
6096
20
4991.1
30
0
11
6858
21
4991.1
31
0
0
LINE
8
A-WALL
10
7772.400000000001
20
4991.1
30
0
11
12801.6
21
4991.1
31
0
0
LINE
8
A-WALL
10
6096
20
4762.5
30
0
11
6858
21
4762.5
31
0
0
LINE
8
A-WALL
10
7772.400000000001
20
4762.5
30
0
11
12801.6
21
4762.5
31
0
0
LINE
8
A-WALL
10
10248.9
20
0
30
0
11
10248.9
21
838.2
31
0
0
LINE
8
A-WALL
10
10248.9
20
1600.2
30
0
11
10248.9
21
2438.4
31
0
0
LINE
8
A-WALL
10
10477.5
20
0
30
0
11
10477.5
21
838.2
31
0
0
LINE
8
A-WALL
10
10477.5
20
1600.2
30
0
11
10477.5
21
2438.4
31
0
0
LINE
8
A-WALL
10
10363.2
20
2552.7000000000003
30
0
11
12801.6
21
2552.7000000000003
31
0
0
LINE
8
A-WALL
10
10363.2
20
2324.1
30
0
11
12801.6
21
2324.1
31
0
0
LINE
8
A-WALL
10
10248.9
20
6705.6
30
0
11
10248.9
21
7543.8
31
0
0
LINE
8
A-WALL
10
10248.9
20
8305.800000000001
30
0
11
10248.9
21
9144
31
0
0
LINE
8
A-WALL
10
10477.5
20
6705.6
30
0
11
10477.5
21
7543.8
31
0
0
LINE
8
A-WALL
10
10477.5
20
8305.800000000001
30
0
11
10477.5
21
9144
31
0
0
LINE
8
A-WALL
10
10363.2
20
6819.900000000001
30
0
11
12801.6
21
6819.900000000001
31
0
0
LINE
8
A-WALL
10
10363.2
20
6591.3
30
0
11
12801.6
21
6591.3
31
0
0
LINE
8
A-WALL
10
0
20
6210.3
30
0
11
1981.2
21
6210.3
31
0
0
LINE
8
A-WALL
10
2895.6
20
6210.3
30
0
11
3657.6000000000004
21
6210.3
31
0
0
LINE
8
A-WALL
10
0
20
5981.7
30
0
11
1981.2
21
5981.7
31
0
0
LINE
8
A-WALL
10
2895.6
20
5981.7
30
0
11
3657.6000000000004
21
5981.7
31
0
0
LINE
8
A-WALL
10
3543.3
20
6096
30
0
11
3543.3
21
9144
31
0
0
LINE
8
A-WALL
10
3771.9
20
6096
30
0
11
3771.9
21
9144
31
0
0
TEXT
8
A-TEXT
10
2743.2000000000003
20
2743.2000000000003
30
0
40
167.64000000000001
1
LIVING / DINING
0
TEXT
8
A-TEXT
10
9144
20
7620
30
0
40
167.64000000000001
1
BEDROOM 1
0
TEXT
8
A-TEXT
10
9144
20
2438.4
30
0
40
167.64000000000001
1
BEDROOM 2
0
TEXT
8
A-TEXT
10
1828.8000000000002
20
7620
30
0
40
167.64000000000001
1
KITCHEN
0
TEXT
8
A-TEXT
10
11582.4
20
7924.8
30
0
40
167.64000000000001
1
BATH 1
0
TEXT
8
A-TEXT
10
11582.4
20
1219.2
30
0
40
167.64000000000001
1
BATH 2
0
ARC
8
A-DOOR
10
6096
20
2438.4
30
0
40
914.4000000000001
50
0
51
90
0
ARC
8
A-DOOR
10
6096
20
6400.8
30
0
40
914.4000000000001
50
0
51
90
0
ARC
8
A-DOOR
10
6248.400000000001
20
6096
30
0
40
914.4000000000001
50
0
51
90
0
ARC
8
A-DOOR
10
10363.2
20
1219.2
30
0
40
762
50
0
51
90
0
ARC
8
A-DOOR
10
10363.2
20
7924.8
30
0
40
762
50
0
51
90
0
ARC
8
A-DOOR
10
2438.4
20
6096
30
0
40
914.4000000000001
50
0
51
90
0
LINE
8
A-DIMS
10
-1219.2
20
0
30
0
11
-1219.2
21
9144
31
0
0
LINE
8
A-DIMS
10
-1371.6000000000001
20
0
30
0
11
-1066.8
21
0
31
0
0
LINE
8
A-DIMS
10
-1371.6000000000001
20
9144
30
0
11
-1066.8
21
9144
31
0
0
TEXT
8
A-DIMS
10
-1676.4
20
4572
30
0
40
137.16
1
30 FT
0
LWPOLYLINE
8
A-FURN
90
4
70
1
10
914.4000000000001
20
914.4000000000001
10
3048
20
914.4000000000001
10
3048
20
1828.8000000000002
10
914.4000000000001
20
1828.8000000000002
0
ENDSEC
0
EOF